<svg width="17" height="16" viewBox="0 0 17 16" fill="none" xmlns="http://www.w3.org/2000/svg">
<path d="M3.54159 13.3333C3.93279 13.3333 4.24992 13.0349 4.24992 12.6667C4.24992 12.2985 3.93279 12 3.54159 12C3.15038 12 2.83325 12.2985 2.83325 12.6667C2.83325 13.0349 3.15038 13.3333 3.54159 13.3333Z" />
<path d="M2.83325 2.66602H4.24992V8.66602H2.83325V2.66602Z" />
<path d="M4.95841 1.33398H2.12508C1.93722 1.33398 1.75705 1.40422 1.62421 1.52925C1.49138 1.65427 1.41675 1.82384 1.41675 2.00065V14.0007C1.41675 14.1775 1.49138 14.347 1.62421 14.4721C1.75705 14.5971 1.93722 14.6673 2.12508 14.6673H4.95841C5.14628 14.6673 5.32644 14.5971 5.45928 14.4721C5.59212 14.347 5.66675 14.1775 5.66675 14.0007V2.00065C5.66675 1.82384 5.59212 1.65427 5.45928 1.52925C5.32644 1.40422 5.14628 1.33398 4.95841 1.33398ZM4.95841 14.0007H2.12508V2.00065H4.95841V14.0007Z" />
<path d="M8.50008 13.3333C8.89128 13.3333 9.20841 13.0349 9.20841 12.6667C9.20841 12.2985 8.89128 12 8.50008 12C8.10888 12 7.79175 12.2985 7.79175 12.6667C7.79175 13.0349 8.10888 13.3333 8.50008 13.3333Z" />
<path d="M7.79175 2.66602H9.20841V8.66602H7.79175V2.66602Z" />
<path d="M9.91667 1.33398H7.08333C6.89547 1.33398 6.7153 1.40422 6.58247 1.52925C6.44963 1.65427 6.375 1.82384 6.375 2.00065V14.0007C6.375 14.1775 6.44963 14.347 6.58247 14.4721C6.7153 14.5971 6.89547 14.6673 7.08333 14.6673H9.91667C10.1045 14.6673 10.2847 14.5971 10.4175 14.4721C10.5504 14.347 10.625 14.1775 10.625 14.0007V2.00065C10.625 1.82384 10.5504 1.65427 10.4175 1.52925C10.2847 1.40422 10.1045 1.33398 9.91667 1.33398ZM9.91667 14.0007H7.08333V2.00065H9.91667V14.0007Z" />
<path d="M13.4583 13.3333C13.8495 13.3333 14.1667 13.0349 14.1667 12.6667C14.1667 12.2985 13.8495 12 13.4583 12C13.0671 12 12.75 12.2985 12.75 12.6667C12.75 13.0349 13.0671 13.3333 13.4583 13.3333Z" />
<path d="M12.75 2.66602H14.1667V8.66602H12.75V2.66602Z" />
<path d="M14.8749 1.33398H12.0416C11.8537 1.33398 11.6736 1.40422 11.5407 1.52925C11.4079 1.65427 11.3333 1.82384 11.3333 2.00065V14.0007C11.3333 14.1775 11.4079 14.347 11.5407 14.4721C11.6736 14.5971 11.8537 14.6673 12.0416 14.6673H14.8749C15.0628 14.6673 15.2429 14.5971 15.3758 14.4721C15.5086 14.347 15.5833 14.1775 15.5833 14.0007V2.00065C15.5833 1.82384 15.5086 1.65427 15.3758 1.52925C15.2429 1.40422 15.0628 1.33398 14.8749 1.33398ZM14.8749 14.0007H12.0416V2.00065H14.8749V14.0007Z" />
</svg>
