<svg width="40" height="40" viewBox="0 0 50 50" fill="none" xmlns="http://www.w3.org/2000/svg">
<g clip-path="url(#clip0_202_1360)">
<path d="M48.8255 17.4229C48.0443 15.001 46.8724 12.6573 45.388 10.5479C37.4193 -0.702103 21.7943 -3.35835 10.5443 4.6104C8.74738 5.8604 7.10675 7.34477 5.7005 9.06352C-1.09637 17.2666 -1.95575 28.8291 3.59113 37.9698C4.4505 39.376 5.388 40.626 6.48175 41.876C6.48175 41.9541 6.55988 42.0323 6.638 42.1104L6.79425 42.2666C6.87238 42.3448 6.9505 42.4229 7.02863 42.4229C9.21613 44.6885 11.7943 46.5635 14.6849 47.8916C19.5286 50.001 24.9193 50.626 30.0755 49.5323C34.9974 48.5166 39.5286 46.0166 43.0443 42.3448C43.1224 42.2666 43.2005 42.2666 43.2786 42.1885C43.2786 42.1104 43.3568 42.1104 43.3568 42.0323C43.4349 41.9541 43.513 41.876 43.513 41.7979C46.7943 38.2041 48.9818 33.6729 49.6849 28.9073C49.9193 27.5791 49.9974 26.3291 49.9974 25.001C49.9974 22.4229 49.6068 19.8448 48.8255 17.4229ZM41.7943 41.3291C39.3724 43.8291 36.4036 45.7823 33.1224 47.0323C28.4349 48.751 23.3568 48.9073 18.5911 47.5791C16.2474 46.9541 14.0599 45.9385 12.1068 44.6104C10.7005 43.6729 9.37238 42.5791 8.2005 41.4073L8.27863 41.3291L8.43488 41.1729C8.43488 41.1729 8.43488 41.0948 8.513 41.0948L8.59113 41.0166C8.74738 40.8604 8.90363 40.626 9.05988 40.4698C9.52863 40.001 9.91925 39.6104 10.4661 39.1416L10.8568 38.8291H10.9349L11.2474 38.5948C11.638 38.3604 11.9505 38.0479 12.3411 37.8135C14.3724 36.5635 16.5599 35.4698 18.8255 34.6885C19.3724 34.5323 19.8411 34.2198 20.2318 33.8291C20.8568 33.2823 21.2474 32.501 21.3255 31.6416C21.4036 30.3916 20.5443 29.4541 19.9193 28.4385C19.2943 27.501 18.6693 26.4854 18.2005 25.4698C17.6536 24.376 17.263 23.2041 16.8724 22.1104C16.4818 20.9385 16.2474 19.6885 16.2474 18.4385V17.2666C16.3255 16.7979 16.4036 16.3291 16.5599 15.8604C16.638 15.626 16.7161 15.3135 16.7943 15.0791L16.9505 14.6885L17.0286 14.4541C17.263 13.8291 17.5755 13.2823 17.9661 12.8135L18.1224 12.6573C18.2005 12.501 18.3568 12.4229 18.4349 12.2666C18.6693 11.9541 18.9036 11.7198 19.2161 11.4854L19.3724 11.3291L19.4505 11.251L19.9193 10.9385C20.2318 10.7041 20.5443 10.5479 20.9349 10.3916H21.013L21.1693 10.3135L21.4818 10.2354L22.1068 10.001C22.3411 9.9229 22.4974 9.9229 22.7318 9.84477L23.1224 9.76665H23.3568C24.3724 9.6104 25.388 9.6104 26.4818 9.76665H27.0286L27.3411 9.84477C27.5755 9.9229 27.8099 9.9229 28.0443 10.001C28.2786 10.0791 28.4349 10.1573 28.6693 10.1573L28.9818 10.2354L29.138 10.3135H29.2161C29.6068 10.4698 29.9193 10.626 30.2318 10.8604L30.7005 11.1729L30.8568 11.3291C30.9349 11.3291 30.9349 11.4073 31.013 11.4854C31.2474 11.7198 31.5599 11.9541 31.7943 12.2666C31.8724 12.4229 32.0286 12.501 32.1068 12.6573L32.1849 12.7354L32.263 12.8916C32.6536 13.3604 32.9661 13.9073 33.2005 14.5323L33.2786 14.6885L33.3568 14.7666C33.4349 14.9229 33.4349 15.0791 33.513 15.1573C33.5911 15.3916 33.6693 15.7041 33.7474 15.9385C33.9036 16.4073 33.9818 16.7979 34.0599 17.2666V18.0479C34.138 19.4541 33.9036 20.8604 33.4349 22.2666C32.8099 23.4385 32.4974 24.5323 32.0286 25.626C31.5599 26.7198 30.9349 27.7354 30.2318 28.6729C29.5286 29.6104 28.8255 30.5479 28.9036 31.7979C28.9818 32.5791 29.3724 33.3604 29.9193 33.9073C30.388 34.2979 30.8568 34.5323 31.4036 34.7666C32.6536 35.2354 33.8255 35.7823 35.0755 36.3291C36.013 36.7979 36.9505 37.3448 37.888 37.8916C38.2786 38.126 38.6693 38.3604 38.9818 38.6729L39.2161 38.8291L39.2943 38.9073L39.763 39.2979C40.2318 39.6885 40.7005 40.0791 41.0911 40.5479C41.2474 40.7041 41.4036 40.9385 41.5599 41.0948L41.638 41.1729L41.7943 41.3291ZM44.138 38.5948C43.7474 39.1416 43.3568 39.6885 42.888 40.2354C42.6536 39.9229 42.4193 39.6885 42.1849 39.4541C41.1693 38.3604 39.9974 37.4229 38.6693 36.5635C36.5599 35.2354 34.3724 34.1416 32.0286 33.3604L31.5599 33.126L31.3255 33.0479H31.2474L31.0911 32.9698L30.9349 32.8135L30.7786 32.6573C30.7786 32.6573 30.7786 32.5791 30.7005 32.5791C30.6224 32.501 30.5443 32.3448 30.4661 32.2666C30.4661 32.2666 30.3099 32.0323 30.3099 31.9541V31.4073C30.388 30.9385 30.6224 30.4698 30.9349 30.0791C31.4036 29.4541 31.7943 28.9073 32.1849 28.2041C32.7318 27.2666 33.2005 26.3291 33.6693 25.3135C34.6849 23.126 35.2318 20.8604 35.3099 18.4385C35.3099 16.7198 34.8411 15.001 34.0599 13.4385C33.4349 12.1104 32.4974 10.9385 31.3255 10.0791C29.8411 8.9854 28.0443 8.3604 26.2474 8.12602C24.2161 7.81352 22.1849 8.12602 20.3099 8.82915C18.8255 9.45415 17.5755 10.3916 16.5599 11.6416C15.2318 13.5166 14.5286 15.626 14.3724 17.8916C14.2943 19.1416 14.4505 20.3916 14.763 21.5635C15.388 23.9073 16.2474 26.1729 17.4974 28.2041C17.888 28.8291 18.2786 29.376 18.7474 30.001C19.0599 30.3916 19.2943 30.8604 19.3724 31.3291C19.3724 31.3291 19.3724 31.4854 19.3724 31.5635C19.3724 31.6416 19.3724 31.7979 19.3724 31.7979C19.3724 31.876 19.3724 31.9541 19.2943 31.9541V32.0323L19.0599 32.3448L18.9818 32.4229L18.8255 32.5791L18.6693 32.7354L18.7474 33.0479H18.6693C18.6693 33.0479 18.4349 33.126 18.3568 33.126L17.7318 33.3604C16.4818 33.8291 15.1536 34.376 13.9818 35.001C12.263 35.8604 10.6224 36.876 9.138 38.126C8.43488 38.751 7.73175 39.376 7.18488 40.1573L6.9505 39.8448C6.16925 38.9854 5.46613 38.0479 4.84113 37.0323C4.52863 36.4854 4.21613 36.0166 3.98175 35.4698C3.66925 34.9229 3.43488 34.376 3.27863 33.9073C2.34113 31.6416 1.79425 29.2979 1.638 26.876C1.24738 21.9541 2.41925 17.0323 4.99738 12.8135C7.49738 8.75102 11.0911 5.5479 15.4661 3.59477C27.263 -1.71773 41.2474 3.51665 46.5599 15.3916C47.4193 17.3448 48.0443 19.376 48.3568 21.4854C48.513 22.6573 48.5911 23.8291 48.5911 25.0791C48.513 29.9229 46.9505 34.6104 44.138 38.5948Z" fill="#029147"/>
<path d="M41.7969 41.25C39.375 43.8281 36.4063 45.7812 33.125 47.0312C28.4375 48.75 23.3594 48.9062 18.5937 47.5781C16.25 46.9531 14.0625 45.9375 12.1094 44.6094C10.7031 43.6719 9.375 42.5781 8.20312 41.4062L8.28125 41.3281L8.4375 41.1719C8.4375 41.1719 8.4375 41.0937 8.51562 41.0937L8.59375 41.0156C8.75 40.8594 8.90625 40.625 9.0625 40.4687C9.53125 40 9.92187 39.6094 10.4687 39.1406L10.8594 38.8281H10.9375L11.25 38.5938C11.6406 38.3594 11.9531 38.0469 12.3438 37.8125C14.375 36.5625 16.5625 35.4688 18.8281 34.6875C19.375 34.5312 19.8438 34.2187 20.2344 33.8281C20.8594 33.2812 21.25 32.5 21.3281 31.6406C21.4062 30.3906 20.5469 29.4531 19.9219 28.4375C19.2969 27.5 18.6719 26.4844 18.2031 25.4687C17.6562 24.375 17.2656 23.2031 16.875 22.1094C16.4844 20.9375 16.25 19.6875 16.25 18.4375V17.2656C16.3281 16.7969 16.4063 16.3281 16.5625 15.8594C16.6406 15.625 16.7188 15.3125 16.7969 15.0781L16.9531 14.6875L17.0312 14.4531C17.2656 13.8281 17.5781 13.2812 17.9688 12.8125L18.125 12.6563C18.2031 12.5 18.3594 12.4219 18.4375 12.2656C18.6719 11.9531 18.9062 11.7187 19.2188 11.4844L19.375 11.3281L19.4531 11.25L19.9219 10.9375C20.2344 10.7031 20.5469 10.5469 20.9375 10.3906H21.0156L21.1719 10.3125L21.4844 10.2344L22.1094 10C22.3437 9.92188 22.5 9.92188 22.7344 9.84375L23.125 9.76562H23.3594C24.375 9.60938 25.3906 9.60938 26.4844 9.76562H27.0312L27.3438 9.84375C27.5781 9.92188 27.8125 9.92188 28.0469 10C28.2813 10.0781 28.4375 10.1562 28.6719 10.1562L28.9844 10.2344L29.1406 10.3125H29.2188C29.6094 10.4687 29.9219 10.625 30.2344 10.8594L30.7031 11.1719L30.8594 11.3281C30.9375 11.3281 30.9375 11.4062 31.0156 11.4844C31.25 11.7187 31.5625 11.9531 31.7969 12.2656C31.875 12.4219 32.0312 12.5 32.1094 12.6563L32.1875 12.7344L32.2656 12.8906C32.6562 13.3594 32.9688 13.9062 33.2031 14.5312L33.2812 14.6875L33.3594 14.7656C33.4375 14.9219 33.4375 15.0781 33.5156 15.1562C33.5938 15.3906 33.6719 15.7031 33.75 15.9375C33.9062 16.4062 33.9844 16.7969 34.0625 17.2656V18.0469C34.1406 19.4531 33.9062 20.8594 33.4375 22.2656C32.8125 23.4375 32.5 24.5312 32.0312 25.625C31.5625 26.7187 30.9375 27.7344 30.2344 28.6719C29.5312 29.6094 28.8281 30.5469 28.9062 31.7969C28.9844 32.5781 29.375 33.3594 29.9219 33.9062C30.3906 34.2969 30.8594 34.5312 31.4062 34.7656C32.6562 35.2344 33.8281 35.7812 35.0781 36.3281C36.0156 36.7969 36.9531 37.3438 37.8906 37.8906C38.2812 38.125 38.6719 38.3594 38.9844 38.6719L39.2188 38.8281L39.2969 38.9062L39.7656 39.2969C40.2344 39.6875 40.7031 40.0781 41.0938 40.5469C41.25 40.7031 41.4062 40.9375 41.5625 41.0937L41.6406 41.1719L41.7969 41.25Z" fill="#029147"/>
<path d="M8.43756 41.0156C8.35944 41.0937 8.35944 41.0937 8.43756 41.0156V41.0156Z" fill="#029147"/>
</g>
<defs>
<clipPath id="clip0_202_1360">
<rect width="50" height="50" fill="white"/>
</clipPath>
</defs>
</svg>
