<svg width="20" height="20" viewBox="0 0 20 20" fill="none" xmlns="http://www.w3.org/2000/svg">
<path d="M10.0001 8.33333C10.9592 8.33333 11.6667 7.62667 11.6667 6.66667C11.6667 5.70667 10.9592 5 10.0001 5C9.04175 5 8.33341 5.70667 8.33341 6.66667C8.33341 7.62667 9.04175 8.33333 10.0001 8.33333ZM10.0001 9.16667C8.15925 9.16667 6.66675 10.51 6.66675 12.1667V12.4883H13.3334V12.1667C13.3334 10.51 11.8409 9.16667 10.0001 9.16667Z" fill="#029147"/>
<path d="M15.8333 1.66602H4.16667C3.2475 1.66602 2.5 2.41352 2.5 3.33268V14.166C2.5 15.0852 3.2475 15.8327 4.16667 15.8327H7.5L10 18.3327L12.5 15.8327H15.8333C16.7525 15.8327 17.5 15.0852 17.5 14.166V3.33268C17.5 2.41352 16.7525 1.66602 15.8333 1.66602ZM11.6667 14.166L10 15.8327L8.33333 14.166H4.16667V3.33268H15.8333L15.835 14.166H11.6667Z" fill="#029147"/>
</svg>
