<svg width="24" height="24" viewBox="0 0 24 24" fill="none" xmlns="http://www.w3.org/2000/svg">
<path d="M13.9251 19C13.5084 19 13.2127 18.8207 13.0381 18.462C12.8627 18.104 12.8917 17.7583 13.1251 17.425L17.0001 12L13.1251 6.575C12.8917 6.24167 12.8627 5.89567 13.0381 5.537C13.2127 5.179 13.5084 5 13.9251 5C14.1084 5 14.2751 5.04567 14.4251 5.137C14.5751 5.229 14.7001 5.34167 14.8001 5.475L19.0251 11.425C19.0917 11.5083 19.1417 11.6 19.1751 11.7C19.2084 11.8 19.2251 11.9 19.2251 12C19.2251 12.1 19.2084 12.1957 19.1751 12.287C19.1417 12.379 19.0917 12.475 19.0251 12.575L14.8001 18.525C14.7001 18.6583 14.5751 18.771 14.4251 18.863C14.2751 18.9543 14.1084 19 13.9251 19ZM7.97506 19C7.55839 19 7.26272 18.8207 7.08806 18.462C6.91272 18.104 6.94172 17.7583 7.17506 17.425L11.0501 12L7.17506 6.575C6.94172 6.24167 6.91272 5.89567 7.08806 5.537C7.26272 5.179 7.55839 5 7.97506 5C8.15839 5 8.32506 5.04567 8.47506 5.137C8.62506 5.229 8.75006 5.34167 8.85006 5.475L13.0751 11.425C13.1417 11.5083 13.1917 11.6 13.2251 11.7C13.2584 11.8 13.2751 11.9 13.2751 12C13.2751 12.1 13.2584 12.2 13.2251 12.3C13.1917 12.4 13.1417 12.4917 13.0751 12.575L8.85006 18.525C8.75006 18.6583 8.62506 18.771 8.47506 18.863C8.32506 18.9543 8.15839 19 7.97506 19Z" fill="#4F4F4F"/>
</svg>
