<svg width="24" height="24" viewBox="0 0 24 24" fill="none" xmlns="http://www.w3.org/2000/svg">
<g clip-path="url(#clip0_202_1367)">
<path d="M7.01257 12.75H23.2501C24.2251 12.75 24.2251 11.25 23.2501 11.25H7.01257C6.07507 11.25 6.07507 12.75 7.01257 12.75Z" />
<path d="M23.7752 11.5129L19.0502 6.78789C18.3752 6.11289 17.3252 7.16289 18.0002 7.83789L22.6877 12.5254C23.4002 13.2004 24.4502 12.1504 23.7752 11.5129Z" />
<path d="M22.725 11.5122L18.0375 16.1997C17.3625 16.8747 18.4125 17.9247 19.0875 17.2497L23.775 12.5622C24.45 11.8497 23.4 10.8372 22.725 11.5122Z" />
<path d="M14.4001 14.6245V17.437C14.4001 17.962 14.6626 19.0495 14.0251 19.1995C13.3876 19.3495 12.6376 19.1995 12.0376 19.1995H2.21256C1.83756 19.1995 1.61256 19.1995 1.53756 18.787C1.50006 18.262 1.50006 17.6995 1.53756 17.1745V5.92452C1.53756 5.58702 1.42506 5.06202 1.80006 4.91202C2.17506 4.76202 2.92506 4.91202 3.30006 4.91202H13.8001C14.5876 4.91202 14.4376 5.54952 14.4376 6.22452V9.48702C14.5126 9.89952 14.9251 10.162 15.3001 10.087C15.6001 10.012 15.8251 9.78702 15.9001 9.48702V6.37452C15.9001 5.17452 15.9751 3.71202 14.4001 3.44952C13.8001 3.41202 13.2376 3.37452 12.6376 3.41202H2.13756C1.05006 3.41202 0.0750606 3.93702 6.05807e-05 5.13702C-0.0374394 5.54952 6.05807e-05 5.99952 6.05807e-05 6.41202V16.3495C6.05807e-05 17.737 -0.412439 20.287 1.46256 20.662C2.06256 20.737 2.66256 20.737 3.26256 20.6995H13.8001C14.8876 20.6995 15.8251 20.1745 15.9001 18.9745C15.9751 17.887 15.9001 16.7995 15.9001 15.712V14.6245C15.9001 13.687 14.4001 13.687 14.4001 14.6245Z" />
</g>
<defs>
<clipPath id="clip0_202_1367">
<rect width="24" height="24" fill="white"/>
</clipPath>
</defs>
</svg>
