<svg width="15" height="18" viewBox="0 0 15 18" fill="none" xmlns="http://www.w3.org/2000/svg">
<g clip-path="url(#clip0_682_1282)">
<path d="M14.0913 9.97748C13.1142 9.20606 12.1113 8.46034 11.1342 7.68891C10.7999 7.43177 10.2599 7.63748 10.0799 7.97177C9.84847 8.35748 10.0285 8.76891 10.3628 9.02606C10.7228 9.30891 11.1085 9.59177 11.4685 9.87463C10.157 9.87463 8.84561 9.87463 7.5599 9.87463C7.27704 9.87463 6.96847 9.87463 6.68561 9.87463C5.68276 9.87463 5.68276 11.4175 6.68561 11.4175C8.2799 11.4175 9.87419 11.4175 11.4942 11.4175C11.1342 11.7003 10.7485 11.9832 10.3885 12.2661C10.0542 12.5232 9.87419 12.9346 10.1056 13.3203C10.2856 13.6546 10.8256 13.8603 11.1599 13.6032C12.137 12.8318 13.1399 12.0861 14.117 11.3146L14.1428 11.2889C14.297 11.1861 14.4256 11.0318 14.477 10.8518C14.5542 10.4918 14.3742 10.1832 14.0913 9.97748Z" />
<path d="M12.24 14.22V15.12C12.24 15.4543 12.2657 15.7371 12.1885 15.9943C12.1628 15.9943 12.0857 16.1486 12.0857 16.1743L11.9314 16.3286C11.8028 16.4057 11.7514 16.4314 11.6742 16.4571C11.52 16.4571 11.5714 16.4571 11.4685 16.4571C11.3914 16.4571 11.3142 16.4571 11.2114 16.4571H2.98281C2.67424 16.4571 2.31424 16.4829 2.10853 16.4314C2.03138 16.4057 1.97995 16.4057 1.85138 16.3029C1.85138 16.3029 1.72281 16.1743 1.6971 16.1486C1.59424 15.9686 1.56853 15.84 1.54281 15.6857V2.41714C1.54281 2.26286 1.54281 2.26286 1.56853 2.10857C1.59424 2.03143 1.61995 1.98 1.6971 1.85143L1.85138 1.69714C2.03138 1.56857 2.15995 1.54286 2.31424 1.54286C4.3971 1.49143 6.47995 1.54286 8.56281 1.54286V4.68C8.56281 5.09143 8.92281 5.45143 9.33424 5.45143H12.24V7.04571C12.24 8.04857 13.7828 8.04857 13.7828 7.04571V4.70571V4.68C13.7828 4.26857 13.8342 3.83143 13.5514 3.49714C13.3971 3.31714 13.2428 3.16286 13.0885 2.98286C12.42 2.26286 11.7257 1.54286 11.0571 0.822857C10.8771 0.617143 10.6971 0.411429 10.4914 0.231429C10.26 0.0257143 10.0028 0 9.69424 0H9.35995H9.33424H4.31995C3.6771 0 3.03424 0 2.39138 0C1.07995 0 0.0513825 1.00286 -4.60381e-05 2.34C-4.60381e-05 3.52286 -4.60381e-05 4.68 -4.60381e-05 5.86286V12.0857C-4.60381e-05 13.2686 -0.0257603 14.4514 -4.60381e-05 15.66C0.0513825 16.9714 1.07995 18 2.36567 18C2.90567 18 3.47138 18 4.01138 18H9.9771C10.4657 18 10.9542 18 11.4428 18C12.1628 17.9743 12.8314 17.6657 13.2942 17.1C13.68 16.5857 13.7828 15.9943 13.7828 15.3771V14.22C13.7828 13.2171 12.24 13.2171 12.24 14.22ZM11.8285 3.90857H10.1057V2.08286C10.6714 2.7 11.2628 3.31714 11.8285 3.90857Z" />
</g>
<defs>
<clipPath id="clip0_682_1282">
<rect width="14.4771" height="18" fill="white"/>
</clipPath>
</defs>
</svg>
