<svg width="24" height="24" viewBox="0 0 24 24" fill="none" xmlns="http://www.w3.org/2000/svg">
<path d="M15.2211 2.5C16.2031 2.5 17.1326 2.724 17.9606 3.123L16.3586 4.713C16.1391 4.93018 15.9649 5.18871 15.846 5.47364C15.7272 5.75858 15.6659 6.06426 15.6659 6.373C15.6659 6.68174 15.7272 6.98742 15.846 7.27236C15.9649 7.55729 16.1391 7.81582 16.3586 8.033C16.8035 8.47339 17.4043 8.72042 18.0303 8.72042C18.6564 8.72042 19.2571 8.47339 19.7021 8.033L21.1286 6.617C21.3686 7.278 21.5001 7.991 21.5001 8.734C21.5001 12.1775 18.6886 14.9685 15.2211 14.9685C14.3911 14.9685 13.5991 14.8085 12.8746 14.5185L6.53509 20.8125C6.0903 21.2528 5.48972 21.4998 4.86384 21.4998C4.23796 21.4998 3.63738 21.2528 3.19259 20.8125C2.97331 20.5954 2.79924 20.337 2.68045 20.0522C2.56165 19.7674 2.50049 19.4618 2.50049 19.1532C2.50049 18.8447 2.56165 18.5391 2.68045 18.2543C2.79924 17.9695 2.97331 17.7111 3.19259 17.494L9.47609 11.255C9.1226 10.4616 8.94047 9.60257 8.94159 8.734C8.94159 5.291 11.7531 2.5 15.2211 2.5Z" stroke="#029147" stroke-width="2" stroke-linejoin="round"/>
</svg>
