<svg width="22" height="20" viewBox="0 0 22 20" fill="none" xmlns="http://www.w3.org/2000/svg">
<g clip-path="url(#clip0_321_452)">
<path d="M20.1666 10.5556C20.0862 10.556 20.0064 10.542 19.932 10.5143C19.8575 10.4867 19.7898 10.4459 19.7327 10.3944L10.9999 2.45L2.26716 10.3944C2.15025 10.4855 1.99987 10.533 1.84607 10.5276C1.69227 10.5222 1.54637 10.4643 1.43754 10.3653C1.3287 10.2664 1.26494 10.1337 1.259 9.99392C1.25306 9.8541 1.30537 9.71739 1.40549 9.61111L10.5722 1.27778C10.6867 1.1743 10.8415 1.11623 11.003 1.11623C11.1644 1.11623 11.3193 1.1743 11.4338 1.27778L20.6005 9.61111C20.6846 9.6891 20.7415 9.7879 20.7642 9.89514C20.7869 10.0024 20.7743 10.1133 20.728 10.2141C20.6817 10.3149 20.6037 10.401 20.5039 10.4617C20.404 10.5225 20.2867 10.5551 20.1666 10.5556Z" fill="#ACAAAA"/>
<path d="M11.0001 4.32777L3.66675 11.0167V17.7778C3.66675 18.0725 3.79552 18.3551 4.02473 18.5634C4.25394 18.7718 4.56482 18.8889 4.88897 18.8889H9.16675V13.3333H12.8334V18.8889H17.1112C17.4353 18.8889 17.7462 18.7718 17.9754 18.5634C18.2046 18.3551 18.3334 18.0725 18.3334 17.7778V10.9778L11.0001 4.32777Z" fill="#ACAAAA"/>
</g>
<defs>
<clipPath id="clip0_321_452">
<rect width="22" height="20" fill="white"/>
</clipPath>
</defs>
</svg>
