<svg width="30" height="30" viewBox="0 0 30 30" fill="none" xmlns="http://www.w3.org/2000/svg">
<path d="M17.2876 23.7496C17.1008 23.7502 16.9163 23.709 16.7476 23.629C16.5789 23.549 16.4302 23.4321 16.3126 23.2871L10.2751 15.7871C10.0912 15.5634 9.99072 15.2829 9.99072 14.9934C9.99072 14.7038 10.0912 14.4233 10.2751 14.1996L16.5251 6.69961C16.7373 6.44434 17.0421 6.28381 17.3727 6.25334C17.7032 6.22286 18.0323 6.32494 18.2876 6.53711C18.5429 6.74929 18.7034 7.05417 18.7339 7.38471C18.7643 7.71524 18.6623 8.04434 18.4501 8.29961L12.8626 14.9996L18.2626 21.6996C18.4154 21.8831 18.5125 22.1065 18.5424 22.3435C18.5722 22.5804 18.5336 22.8209 18.431 23.0366C18.3284 23.2522 18.1662 23.434 17.9636 23.5604C17.761 23.6867 17.5264 23.7524 17.2876 23.7496Z" fill="black"/>
</svg>
