<svg width="16" height="17" viewBox="0 0 16 17" fill="none" xmlns="http://www.w3.org/2000/svg">
<path d="M6 12.7493C5.63333 12.7493 5.31956 12.6108 5.05867 12.3336C4.79733 12.0559 4.66667 11.7223 4.66667 11.3327V2.83268C4.66667 2.4431 4.79733 2.10947 5.05867 1.83181C5.31956 1.55461 5.63333 1.41602 6 1.41602H12C12.3667 1.41602 12.6807 1.55461 12.942 1.83181C13.2029 2.10947 13.3333 2.4431 13.3333 2.83268V11.3327C13.3333 11.7223 13.2029 12.0559 12.942 12.3336C12.6807 12.6108 12.3667 12.7493 12 12.7493H6ZM6 11.3327H12V2.83268H6V11.3327ZM3.33333 15.5827C2.96667 15.5827 2.65267 15.4441 2.39133 15.1669C2.13044 14.8892 2 14.5556 2 14.166V4.95768C2 4.75699 2.064 4.58864 2.192 4.45264C2.31956 4.31711 2.47778 4.24935 2.66667 4.24935C2.85556 4.24935 3.014 4.31711 3.142 4.45264C3.26956 4.58864 3.33333 4.75699 3.33333 4.95768V14.166H10C10.1889 14.166 10.3473 14.234 10.4753 14.37C10.6029 14.5055 10.6667 14.6737 10.6667 14.8743C10.6667 15.075 10.6029 15.2432 10.4753 15.3787C10.3473 15.5147 10.1889 15.5827 10 15.5827H3.33333ZM6 2.83268V11.3327V2.83268Z" fill="#4F4F4F"/>
</svg>
