<svg width="14" height="10" viewBox="0 0 14 10" fill="none" xmlns="http://www.w3.org/2000/svg">
<path d="M13.8922 5.07184C12.4949 2.268 10.0446 0.571289 7.33311 0.571289C4.62159 0.571289 2.16713 2.268 0.782349 5.07184L0.66626 5.28337L0.774057 5.49939C2.17128 8.30324 4.62159 9.99995 7.33311 9.99995C10.0446 9.99995 12.4991 8.32574 13.8922 5.49939L14 5.28337L13.8922 5.07184ZM7.33311 9.07734C4.99889 9.07734 2.85538 7.66416 1.61156 5.28337C2.85538 2.90258 4.99889 1.4894 7.33311 1.4894C9.66734 1.4894 11.786 2.90708 13.0505 5.28337C11.786 7.66416 9.66319 9.07734 7.33311 9.07734Z" fill="black"/>
<path d="M7.45332 2.20907C6.89116 2.21352 6.34283 2.39871 5.87758 2.74125C5.41233 3.08379 5.05102 3.56831 4.8393 4.13361C4.62758 4.69892 4.57494 5.31965 4.68802 5.91742C4.80111 6.51518 5.07485 7.06316 5.47467 7.49215C5.87449 7.92113 6.38246 8.21187 6.93442 8.32766C7.48638 8.44345 8.05757 8.37908 8.57585 8.14269C9.09412 7.9063 9.53624 7.50848 9.84636 6.9995C10.1565 6.49051 10.3207 5.89318 10.3182 5.28294C10.3166 4.87674 10.2412 4.47488 10.0962 4.10039C9.95124 3.7259 9.73962 3.38614 9.47348 3.10058C9.20734 2.81503 8.8919 2.58929 8.54524 2.43631C8.19858 2.28332 7.82752 2.2061 7.45332 2.20907ZM7.45332 7.48372C7.05623 7.47927 6.66921 7.34757 6.34086 7.10513C6.0125 6.8627 5.75746 6.52036 5.60776 6.1211C5.45806 5.72184 5.42038 5.28347 5.49946 4.86104C5.57853 4.43861 5.77082 4.05096 6.05219 3.74678C6.33356 3.44259 6.69146 3.23544 7.08093 3.15133C7.47041 3.06723 7.87409 3.10992 8.24129 3.27404C8.60849 3.43817 8.92282 3.71641 9.14481 4.07383C9.36681 4.43124 9.48656 4.85189 9.48903 5.28294C9.49014 5.57305 9.43818 5.86051 9.33616 6.12865C9.23415 6.39679 9.08411 6.64028 8.89474 6.84499C8.70538 7.04971 8.48046 7.21159 8.23302 7.32123C7.98559 7.43087 7.72057 7.4861 7.45332 7.48372Z" fill="black"/>
</svg>
