<svg width="22" height="22" viewBox="0 0 22 22" fill="none" xmlns="http://www.w3.org/2000/svg">
<g clip-path="url(#clip0_2498_1552)">
<path d="M17.1111 18.3346H3.66668V4.89019H11.7456L12.9678 3.66797H3.66668C3.34253 3.66797 3.03165 3.79674 2.80244 4.02595C2.57323 4.25516 2.44446 4.56604 2.44446 4.89019V18.3346C2.44446 18.6588 2.57323 18.9697 2.80244 19.1989C3.03165 19.4281 3.34253 19.5569 3.66668 19.5569H17.1111C17.4353 19.5569 17.7462 19.4281 17.9754 19.1989C18.2046 18.9697 18.3333 18.6588 18.3333 18.3346V9.16797L17.1111 10.3902V18.3346Z" fill="#ACAAAA"/>
<path d="M20.4905 3.56732L18.4311 1.50788C18.3397 1.41623 18.2311 1.34352 18.1115 1.2939C17.992 1.24429 17.8638 1.21875 17.7344 1.21875C17.605 1.21875 17.4768 1.24429 17.3573 1.2939C17.2377 1.34352 17.1291 1.41623 17.0377 1.50788L8.65939 9.9351L7.98106 12.8745C7.95216 13.017 7.9552 13.1642 7.98995 13.3053C8.02471 13.4465 8.09032 13.5782 8.18207 13.691C8.27381 13.8038 8.38941 13.8948 8.52056 13.9576C8.6517 14.0204 8.79512 14.0533 8.9405 14.054C9.01565 14.0623 9.09147 14.0623 9.16661 14.054L12.1305 13.4001L20.4905 4.96066C20.5822 4.86926 20.6549 4.76068 20.7045 4.64113C20.7541 4.52158 20.7796 4.39342 20.7796 4.26399C20.7796 4.13456 20.7541 4.00639 20.7045 3.88685C20.6549 3.7673 20.5822 3.65872 20.4905 3.56732V3.56732ZM11.4949 12.2695L9.25828 12.7645L9.77772 10.5462L16.0844 4.19677L17.8077 5.9201L11.4949 12.2695ZM18.4983 5.22954L16.7749 3.50621L17.7222 2.54066L19.4577 4.27621L18.4983 5.22954Z" fill="#ACAAAA"/>
</g>
<defs>
<clipPath id="clip0_2498_1552">
<rect width="22" height="22" fill="white"/>
</clipPath>
</defs>
</svg>
