<svg width="14" height="14" viewBox="0 0 14 14" fill="none" xmlns="http://www.w3.org/2000/svg">
<path d="M11.9875 2.14453C11.9875 2.01328 11.9438 1.92578 11.8562 1.83828C11.7688 1.75078 11.6812 1.70703 11.55 1.70703C11.4187 1.70703 11.3313 1.75078 11.2438 1.83828L10.0625 3.01953C9.1875 2.58203 8.18125 2.31953 7 2.18828C4.8125 2.40703 3.0625 3.19453 1.8375 4.59453C0.6125 5.99453 0 6.78203 0 7.00078C0 7.21953 0.65625 8.00703 1.8375 9.40703C2.14375 9.75703 2.45 10.0633 2.84375 10.3258L1.6625 11.5508C1.575 11.6383 1.53125 11.7258 1.53125 11.857C1.53125 11.9883 1.575 12.0758 1.6625 12.1633C1.75 12.2508 1.8375 12.2945 1.96875 12.2945C2.1 12.2945 2.1875 12.2508 2.275 12.1633L11.9 2.45078C11.9438 2.36328 11.9875 2.27578 11.9875 2.14453ZM3.15 9.36328C2.1 8.40078 1.4 7.61328 1.05 7.00078C1.44375 6.34453 2.14375 5.55703 3.15 4.63828C4.15625 3.71953 5.46875 3.15078 7 3.06328C7.875 3.10703 8.70625 3.32578 9.40625 3.67578L8.6625 4.41953C8.18125 4.11328 7.65625 3.93828 7 3.93828C6.125 3.93828 5.425 4.24453 4.8125 4.81328C4.2 5.38203 3.9375 6.12578 3.9375 7.00078C3.9375 7.65703 4.1125 8.22578 4.41875 8.70703L3.5 9.66953C3.36875 9.58203 3.2375 9.45078 3.15 9.36328ZM5.075 8.05078C4.9 7.74453 4.8125 7.39453 4.8125 7.00078C4.8125 6.38828 5.03125 5.86328 5.46875 5.46953C5.90625 5.07578 6.3875 4.81328 7 4.81328C7.39375 4.81328 7.74375 4.90078 8.00625 5.07578L5.075 8.05078ZM12.1625 4.59453C11.9875 4.37578 11.7687 4.20078 11.5937 4.02578L10.9375 4.68203C11.9437 5.60078 12.6437 6.38828 12.9937 7.00078C12.6 7.65703 11.9 8.44453 10.8937 9.36328C9.88749 10.282 8.53124 10.8508 6.99999 10.9383C6.29999 10.8945 5.64374 10.7633 5.07499 10.5445L4.41874 11.2008C5.20624 11.507 6.03749 11.7258 6.99999 11.8133C9.18749 11.5945 10.9375 10.807 12.1625 9.40703C13.3875 8.00703 14 7.21953 14 7.00078C14 6.78203 13.3437 5.99453 12.1625 4.59453Z" fill="black"/>
<path d="M7.00002 9.18594C6.82502 9.18594 6.65002 9.14219 6.47502 9.09844L5.77502 9.79844C6.16877 9.97344 6.56252 10.0609 7.00002 10.0609C7.87502 10.0609 8.57502 9.75469 9.18752 9.18594C9.75627 8.61719 10.0625 7.87344 10.0625 6.99844C10.0625 6.56094 9.97502 6.12344 9.80002 5.77344L9.10002 6.47344C9.14377 6.64844 9.18752 6.82344 9.18752 6.99844C9.18752 7.61094 8.96877 8.13594 8.53127 8.52969C8.09377 8.92344 7.61252 9.18594 7.00002 9.18594Z" fill="black"/>
</svg>
