<svg width="35" height="33" viewBox="0 0 35 33" fill="none" xmlns="http://www.w3.org/2000/svg">
<path d="M21.875 27.335C21.9333 27.7475 21.7875 28.1875 21.4521 28.4762C21.3172 28.6037 21.1569 28.7048 20.9805 28.7738C20.8041 28.8428 20.615 28.8784 20.424 28.8784C20.233 28.8784 20.0438 28.8428 19.8674 28.7738C19.691 28.7048 19.5308 28.6037 19.3958 28.4762L13.5479 22.9625C13.3889 22.8159 13.2679 22.6366 13.1946 22.4386C13.1212 22.2406 13.0974 22.0293 13.125 21.8212V14.7812L6.13959 6.3525C5.90277 6.06585 5.79591 5.70248 5.84237 5.34178C5.88882 4.98108 6.08481 4.65238 6.38751 4.4275C6.66459 4.235 6.97084 4.125 7.29167 4.125H27.7083C28.0292 4.125 28.3354 4.235 28.6125 4.4275C28.9152 4.65238 29.1112 4.98108 29.1576 5.34178C29.2041 5.70248 29.0972 6.06585 28.8604 6.3525L21.875 14.7812V27.335ZM10.2667 6.875L16.0417 13.8325V21.4225L18.9583 24.1725V13.8188L24.7333 6.875H10.2667Z" fill="#4F4F4F"/>
</svg>
