<svg width="23" height="23" viewBox="0 0 23 23" fill="none" xmlns="http://www.w3.org/2000/svg">
<path d="M15.3334 7.66667V4.79167H7.66669V7.66667H5.75002V3.83333C5.75002 3.56181 5.8417 3.33404 6.02506 3.15004C6.20906 2.96668 6.43683 2.875 6.70835 2.875H16.2917C16.5632 2.875 16.7907 2.96668 16.974 3.15004C17.158 3.33404 17.25 3.56181 17.25 3.83333V7.66667H15.3334ZM3.83335 9.58333H19.1667H5.75002H3.83335ZM17.25 11.9792C17.5215 11.9792 17.749 11.8872 17.9324 11.7032C18.1164 11.5198 18.2084 11.2924 18.2084 11.0208C18.2084 10.7493 18.1164 10.5215 17.9324 10.3375C17.749 10.1542 17.5215 10.0625 17.25 10.0625C16.9785 10.0625 16.751 10.1542 16.5677 10.3375C16.3837 10.5215 16.2917 10.7493 16.2917 11.0208C16.2917 11.2924 16.3837 11.5198 16.5677 11.7032C16.751 11.8872 16.9785 11.9792 17.25 11.9792ZM7.66669 18.2083H15.3334V14.375H7.66669V18.2083ZM7.66669 20.125C7.1396 20.125 6.68855 19.9375 6.31352 19.5625C5.93785 19.1868 5.75002 18.7354 5.75002 18.2083V16.2917H2.87502C2.60349 16.2917 2.37605 16.1997 2.19269 16.0157C2.00869 15.8323 1.91669 15.6049 1.91669 15.3333V10.5417C1.91669 9.72708 2.1962 9.04443 2.75523 8.49371C3.31426 7.94235 3.99308 7.66667 4.79169 7.66667H18.2084C19.0229 7.66667 19.7059 7.94235 20.2573 8.49371C20.808 9.04443 21.0834 9.72708 21.0834 10.5417V15.3333C21.0834 15.6049 20.9914 15.8323 20.8074 16.0157C20.624 16.1997 20.3965 16.2917 20.125 16.2917H17.25V18.2083C17.25 18.7354 17.0625 19.1868 16.6875 19.5625C16.3118 19.9375 15.8604 20.125 15.3334 20.125H7.66669ZM19.1667 14.375V10.5417C19.1667 10.2701 19.0747 10.0424 18.8907 9.85837C18.7073 9.67501 18.4799 9.58333 18.2084 9.58333H4.79169C4.52016 9.58333 4.2924 9.67501 4.1084 9.85837C3.92503 10.0424 3.83335 10.2701 3.83335 10.5417V14.375H5.75002V12.4583H17.25V14.375H19.1667Z" fill="#029147"/>
</svg>
