<svg width="15" height="12" viewBox="0 0 15 12" fill="none" xmlns="http://www.w3.org/2000/svg">
<path d="M6.04074 1.95002V2.10002H8.81813V1.95002C8.81813 1.63176 8.67182 1.32653 8.41139 1.10148C8.15096 0.876436 7.79774 0.750007 7.42943 0.750007C7.06113 0.750007 6.70791 0.876436 6.44748 1.10148C6.18705 1.32653 6.04074 1.63176 6.04074 1.95002ZM5.1728 2.10002V1.95002C5.1728 1.43284 5.41056 0.936846 5.83376 0.571147C6.25696 0.205448 6.83094 0 7.42943 0C8.02793 0 8.60191 0.205448 9.02511 0.571147C9.44831 0.936846 9.68606 1.43284 9.68606 1.95002V2.10002H13.5918C13.7069 2.10002 13.8172 2.13953 13.8986 2.20986C13.98 2.28018 14.0257 2.37557 14.0257 2.47502C14.0257 2.57448 13.98 2.66986 13.8986 2.74019C13.8172 2.81052 13.7069 2.85003 13.5918 2.85003H12.5791L11.8847 10.0069C11.832 10.5504 11.5448 11.0569 11.0803 11.4261C10.6157 11.7953 10.0075 12.0001 9.37639 12.0001H5.48248C4.85139 12.0001 4.24334 11.7952 3.77883 11.426C3.31432 11.0568 3.02725 10.5503 2.9745 10.0069L2.28015 2.85003H1.2671C1.152 2.85003 1.04162 2.81052 0.960236 2.74019C0.878851 2.66986 0.83313 2.57448 0.83313 2.47502C0.83313 2.37557 0.878851 2.28018 0.960236 2.20986C1.04162 2.13953 1.152 2.10002 1.2671 2.10002H5.1728ZM3.83931 9.94419C3.87387 10.3002 4.06195 10.6321 4.36629 10.874C4.67062 11.1158 5.069 11.2501 5.48248 11.2501H9.37639C9.78993 11.2502 10.1884 11.1159 10.4928 10.8741C10.7972 10.6322 10.9853 10.3003 11.0199 9.94419L11.708 2.85003H3.15086L3.83931 9.94419ZM6.5615 4.87505C6.5615 4.8258 6.55027 4.77704 6.52847 4.73154C6.50666 4.68604 6.47469 4.6447 6.43439 4.60988C6.3941 4.57506 6.34626 4.54743 6.2936 4.52859C6.24095 4.50974 6.18452 4.50004 6.12753 4.50004C6.07054 4.50004 6.01411 4.50974 5.96146 4.52859C5.90881 4.54743 5.86097 4.57506 5.82067 4.60988C5.78037 4.6447 5.74841 4.68604 5.7266 4.73154C5.70479 4.77704 5.69356 4.8258 5.69356 4.87505V9.22509C5.69356 9.27433 5.70479 9.3231 5.7266 9.36859C5.74841 9.41409 5.78037 9.45543 5.82067 9.49025C5.86097 9.52508 5.90881 9.5527 5.96146 9.57154C6.01411 9.59039 6.07054 9.60009 6.12753 9.60009C6.18452 9.60009 6.24095 9.59039 6.2936 9.57154C6.34626 9.5527 6.3941 9.52508 6.43439 9.49025C6.47469 9.45543 6.50666 9.41409 6.52847 9.36859C6.55027 9.3231 6.5615 9.27433 6.5615 9.22509V4.87505ZM8.73134 4.50004C8.97089 4.50004 9.1653 4.66804 9.1653 4.87505V9.22509C9.1653 9.32454 9.11958 9.41993 9.0382 9.49025C8.95681 9.56058 8.84643 9.60009 8.73134 9.60009C8.61624 9.60009 8.50586 9.56058 8.42448 9.49025C8.34309 9.41993 8.29737 9.32454 8.29737 9.22509V4.87505C8.29737 4.66804 8.49179 4.50004 8.73134 4.50004Z" fill="black"/>
</svg>
