<svg width="17" height="19" viewBox="0 0 17 19" fill="none" xmlns="http://www.w3.org/2000/svg">
<path d="M8.21975 3.91155e-05C7.5635 3.91155e-05 6.95061 0.298867 6.42819 0.788203C5.90585 1.27766 5.45866 1.9593 5.08588 2.78496C5.00776 2.95793 4.93315 3.1377 4.86182 3.32313C4.66947 3.29259 4.4763 3.2675 4.28253 3.24789C4.05714 3.22543 3.83721 3.21148 3.62354 3.20648C2.98213 3.19125 2.39592 3.25629 1.88214 3.41203C1.19714 3.61973 0.631901 4.00121 0.303776 4.56945C-0.0243493 5.13781 -0.0720056 5.81805 0.0906115 6.51516C0.253307 7.21223 0.619987 7.94031 1.1487 8.67602C1.25964 8.83031 1.37815 8.98508 1.50323 9.1398C1.38086 9.29086 1.26279 9.44535 1.14917 9.60309C0.620416 10.3388 0.253737 11.0668 0.0910803 11.7639C-0.0715759 12.4611 -0.0238805 13.1413 0.304244 13.7095C0.632369 14.2779 1.1976 14.6593 1.8826 14.867C2.56764 15.0747 3.38155 15.1211 4.28299 15.0311C4.47198 15.0122 4.66503 14.987 4.86143 14.956C4.93114 15.1378 5.00599 15.3176 5.08588 15.4952C5.45866 16.3209 5.90581 17.0025 6.42819 17.4919C6.95057 17.9812 7.56354 18.2802 8.21975 18.2802C8.87592 18.2802 9.48889 17.9812 10.0113 17.4919C10.5336 17.0024 10.9808 16.3209 11.3536 15.4952C11.4335 15.3176 11.5083 15.1379 11.578 14.9561C11.7742 14.987 11.9671 15.0122 12.1559 15.0311C13.0574 15.1211 13.8714 15.0746 14.5563 14.867C15.2414 14.6593 15.8066 14.2778 16.1348 13.7095C16.4629 13.1412 16.5105 12.461 16.3479 11.7639C16.1852 11.0669 15.8185 10.3388 15.2898 9.60309C15.1762 9.44537 15.0581 9.29089 14.9357 9.1398C15.0583 8.98862 15.1765 8.83397 15.2903 8.67606C15.819 7.94035 16.1857 7.21227 16.3483 6.5152C16.511 5.81809 16.4633 5.13785 16.1351 4.56949C15.807 4.00125 15.2418 3.61977 14.5568 3.41207C14.043 3.25633 13.4568 3.19129 12.8155 3.20648C12.6016 3.21148 12.3817 3.22543 12.1563 3.24789C11.9673 3.2668 11.774 3.29215 11.5775 3.32309C11.5079 3.14165 11.4332 2.9622 11.3534 2.78496C10.9807 1.95918 10.5335 1.27754 10.0111 0.788164C9.48874 0.298789 8.87577 0 8.2196 0L8.21975 3.91155e-05ZM8.21975 0.73C8.65745 0.73 9.08663 0.922305 9.51217 1.32102C9.93768 1.71965 10.3441 2.32309 10.6882 3.08535C10.7442 3.20972 10.7974 3.33531 10.8478 3.46203C10.0112 3.64805 9.12518 3.93344 8.21952 4.31477C7.31405 3.93352 6.42811 3.6482 5.59167 3.46219C5.64331 3.33289 5.69635 3.20688 5.75128 3.08531C6.09542 2.32301 6.50182 1.71957 6.92737 1.32086C7.35292 0.922227 7.78206 0.729922 8.21983 0.729922L8.21975 0.73ZM3.39202 3.93535C3.46249 3.93465 3.53409 3.93512 3.60678 3.93676C3.80053 3.94105 4.00198 3.95355 4.21003 3.97438C4.34307 3.98766 4.47905 4.00465 4.61721 4.02469C4.35995 4.84215 4.16409 5.75211 4.04135 6.72703C3.25823 7.32078 2.56799 7.94555 1.98862 8.57715C1.90383 8.4699 1.82142 8.36079 1.74147 8.24988C1.25339 7.57074 0.934049 6.91707 0.80151 6.34918C0.66901 5.78129 0.717135 5.31352 0.935963 4.93445C1.15479 4.55539 1.53596 4.27988 2.09393 4.1107C2.46014 3.99965 2.89862 3.9398 3.39198 3.93531L3.39202 3.93535ZM13.047 3.93535C13.5404 3.93984 13.9789 3.99969 14.3451 4.11074C14.9031 4.27988 15.2841 4.55539 15.503 4.93445C15.7218 5.31352 15.77 5.78133 15.6375 6.34918C15.5051 6.91703 15.1855 7.57074 14.6975 8.24988C14.6176 8.3608 14.5352 8.46994 14.4505 8.57723C13.8712 7.9457 13.1811 7.32109 12.3982 6.72742C12.2756 5.75234 12.0795 4.84227 11.8222 4.02469C11.9602 4.00465 12.096 3.98758 12.229 3.97438C12.4295 3.95406 12.6307 3.9415 12.8323 3.93672C12.9038 3.93509 12.9754 3.93461 13.047 3.93527V3.93535ZM11.097 4.15566C11.2912 4.75871 11.4519 5.4241 11.5719 6.13613C11.1843 5.87434 10.7876 5.62634 10.3826 5.39258C9.97781 5.15877 9.56492 4.93932 9.14467 4.73465C9.82124 4.4825 10.4778 4.28906 11.097 4.15574V4.15566ZM5.34245 4.15578C5.96159 4.28914 6.61803 4.48258 7.2944 4.73469C6.87416 4.93936 6.46128 5.15879 6.05651 5.39258C5.65163 5.62624 5.2551 5.8741 4.86768 6.1357C4.9876 5.42387 5.14831 4.75863 5.34245 4.15574V4.15578ZM8.21952 5.11125C8.81354 5.37328 9.41651 5.67781 10.0176 6.02484C10.6189 6.37203 11.1844 6.74203 11.7084 7.12563C11.7785 7.77121 11.8163 8.44586 11.8163 9.14008C11.8163 9.83391 11.7787 10.5083 11.7085 11.1536C11.1845 11.5371 10.6191 11.907 10.018 12.2541C9.41682 12.6012 8.8137 12.9059 8.21956 13.1679C7.62534 12.9059 7.02221 12.6012 6.42104 12.2541C5.82006 11.9071 5.25487 11.5373 4.73104 11.154C4.66092 10.5086 4.62323 9.83406 4.62323 9.14004C4.62323 8.4457 4.66092 7.77098 4.73112 7.12531C5.25506 6.74184 5.82038 6.37188 6.42147 6.02484C7.02256 5.67785 7.62553 5.37328 8.21952 5.11133V5.11125ZM8.26889 6.20953L6.17897 7.49926L8.26889 8.7891L10.3588 7.49926L8.26889 6.20949V6.20953ZM3.94233 7.7382C3.90949 8.20473 3.89311 8.67228 3.89323 9.13996C3.89323 9.61645 3.91003 10.0842 3.94237 10.5409C3.38573 10.0811 2.88991 9.60926 2.46475 9.13961C2.88991 8.67 3.38573 8.19805 3.94237 7.7382H3.94233ZM12.4972 7.73859C13.0536 8.19836 13.5493 8.67012 13.9743 9.13965C13.5493 9.60918 13.0536 10.0809 12.4972 10.5406C12.53 10.0744 12.5464 9.60729 12.5463 9.14C12.5463 8.66328 12.5295 8.19547 12.4972 7.73859H12.4972ZM5.70815 8.06648V10.6133L7.90307 11.9679V9.42117L5.70815 8.06648ZM10.8276 8.06781L8.63319 9.42211V11.9676L10.8276 10.6133V8.06781H10.8276ZM1.98854 9.70219C2.56799 10.3338 3.25815 10.9584 4.0412 11.5522C4.16385 12.527 4.35979 13.4369 4.61698 14.2543C4.47909 14.2743 4.34331 14.2913 4.21049 14.3046C3.37831 14.3877 2.65241 14.3374 2.0944 14.1683C1.53635 13.9991 1.15534 13.7235 0.936471 13.3445C0.717643 12.9654 0.669479 12.4976 0.801979 11.9297C0.934479 11.3619 1.25385 10.7082 1.74194 10.029C1.82172 9.91827 1.90396 9.80929 1.98858 9.70219H1.98854ZM14.4504 9.70231C14.5366 9.81168 14.6192 9.92066 14.697 10.029C15.1851 10.7081 15.5044 11.3618 15.6369 11.9297C15.7694 12.4975 15.7214 12.9653 15.5026 13.3444C15.2837 13.7235 14.9026 13.9991 14.3445 14.1682C13.7865 14.3374 13.0608 14.3877 12.2286 14.3046C12.0929 14.2908 11.9575 14.2741 11.8225 14.2544C12.0798 13.4367 12.2757 12.5266 12.3983 11.5516C13.1811 10.958 13.8712 10.3336 14.4505 9.70223L14.4504 9.70231ZM11.572 12.143C11.4521 12.855 11.2914 13.5204 11.0973 14.1234C10.478 13.9901 9.82135 13.7965 9.14475 13.5444C9.56512 13.3397 9.97813 13.1201 10.383 12.8863C10.788 12.6526 11.1846 12.4047 11.5721 12.143H11.572ZM4.86753 12.1434C5.25481 12.405 5.6512 12.6527 6.05596 12.8863C6.46087 13.1201 6.87389 13.3396 7.29424 13.5444C6.61784 13.7965 5.96143 13.99 5.34217 14.1233C5.14803 13.5204 4.98749 12.8552 4.86756 12.1434H4.86753ZM8.24135 12.1766L8.26792 12.193L8.29436 12.1766H8.24139H8.24135ZM8.21948 13.9644C9.12534 14.3457 10.0114 14.631 10.8482 14.817C10.7976 14.9441 10.7443 15.07 10.6882 15.1947C10.3441 15.957 9.93768 16.5604 9.51214 16.9591C9.08663 17.3577 8.65745 17.5501 8.21975 17.5501C7.78202 17.5501 7.35284 17.3577 6.92733 16.9591C6.50182 16.5604 6.09542 15.957 5.75128 15.1947C5.6952 15.07 5.64186 14.944 5.59131 14.817C6.42788 14.6309 7.31389 14.3456 8.21956 13.9644H8.21948Z" fill="#029147"/>
</svg>
