<svg width="24" height="24" viewBox="0 0 24 24" fill="none" xmlns="http://www.w3.org/2000/svg">
<g clip-path="url(#clip0_202_1350)">
<path d="M14.625 3.03713C14.5777 3.42191 14.4499 3.79244 14.25 4.12463C13.7025 5.05088 12.2625 4.20713 12.8063 3.28087C12.8956 3.13265 12.9495 2.96583 12.9638 2.79337C12.9809 2.65621 12.9687 2.51697 12.9279 2.3849C12.8871 2.25283 12.8186 2.13094 12.7271 2.02733C12.6357 1.92371 12.5232 1.84073 12.3972 1.7839C12.2712 1.72707 12.1345 1.69767 11.9963 1.69767C11.8581 1.69767 11.7214 1.72707 11.5954 1.7839C11.4694 1.84073 11.3569 1.92371 11.2654 2.02733C11.1739 2.13094 11.1055 2.25283 11.0647 2.3849C11.0239 2.51697 11.0117 2.65621 11.0288 2.79337C11.0451 2.96306 11.0989 3.12701 11.1863 3.27337C11.7338 4.19212 10.29 5.03588 9.75004 4.12463C9.55366 3.80166 9.426 3.44166 9.37504 3.06713C9.32602 2.69357 9.3573 2.31385 9.46679 1.95334C9.57628 1.59284 9.76144 1.25986 10.0099 0.976646C10.2584 0.693435 10.5645 0.46652 10.9077 0.311065C11.2509 0.15561 11.6233 0.0751953 12 0.0751953C12.3768 0.0751953 12.7492 0.15561 13.0924 0.311065C13.4356 0.46652 13.7417 0.693435 13.9902 0.976646C14.2386 1.25986 14.4238 1.59284 14.5333 1.95334C14.6428 2.31385 14.6741 2.69357 14.625 3.06713V3.03713Z" fill="#BDBDBD"/>
<path d="M15.2812 20.595V20.5613C15.269 20.3466 15.1759 20.1446 15.0208 19.9957C14.8657 19.8469 14.66 19.7622 14.445 19.7588H9.54749C9.32727 19.7627 9.1172 19.8521 8.9618 20.0082C8.80641 20.1643 8.71788 20.3748 8.71499 20.595C8.7076 20.8763 8.73659 21.1574 8.80124 21.4313C8.96255 22.136 9.35007 22.7686 9.90464 23.2324C10.4592 23.6963 11.1503 23.9659 11.8725 24C12.7253 23.9996 13.547 23.6798 14.1759 23.1038C14.8047 22.5277 15.195 21.737 15.27 20.8875C15.2757 20.8327 15.2757 20.7774 15.27 20.7225C15.2812 20.6775 15.2812 20.625 15.2812 20.595ZM10.5637 21.4313H13.4362C13.2941 21.6876 13.0859 21.9011 12.8333 22.0498C12.5808 22.1985 12.2931 22.2769 12 22.2769C11.7069 22.2769 11.4192 22.1985 11.1666 22.0498C10.9141 21.9011 10.7059 21.6876 10.5637 21.4313Z" fill="#BDBDBD"/>
<path d="M23.22 19.125C23.1474 18.4993 22.8858 17.9106 22.47 17.4375C22.0125 16.8712 21.345 16.59 20.8688 16.08C20.0663 15.2137 19.9463 13.455 19.7438 12.33C19.4213 10.575 19.1738 8.80121 18.69 7.07996C18.2438 5.51246 17.5988 4.25246 16.065 3.53621C15.602 3.32443 15.1198 3.15742 14.625 3.03746C14.0834 2.90446 13.5314 2.8179 12.975 2.77871C12.735 2.75621 12.4988 2.74496 12.2588 2.74121H11.9513C11.6563 2.74121 11.3525 2.75621 11.04 2.78621C10.4789 2.83124 9.92219 2.92026 9.37501 3.05246C7.78501 3.42746 6.34126 4.27121 5.71501 5.84996C4.59001 8.67371 4.56376 11.7825 3.72751 14.6812C3.63273 15.1586 3.44408 15.6123 3.17251 16.0162C2.79751 16.47 2.16751 16.7175 1.74751 17.1675C0.866262 18.1125 0.300012 19.6312 1.32376 20.7037C1.98001 21.375 2.66626 21.4312 3.51751 21.4312H15.5363C17.4113 21.4312 19.3688 21.6112 21.2288 21.4312C21.7926 21.3743 22.3132 21.1035 22.6836 20.6745C23.0539 20.2456 23.2459 19.6911 23.22 19.125ZM2.73376 19.7587C2.65501 19.7587 2.71126 19.7587 2.77126 19.7587H2.73376ZM21.2363 19.7587C21.2536 19.7555 21.2714 19.7555 21.2888 19.7587H21.2363ZM21.4125 19.59C21.3321 19.6562 21.2469 19.7164 21.1575 19.77C20.4881 19.8112 19.8169 19.8112 19.1475 19.77H3.34126C3.18376 19.77 3.00751 19.7925 2.84251 19.77C2.75117 19.7158 2.66348 19.6556 2.58001 19.59C2.51004 19.506 2.46604 19.4035 2.45339 19.2949C2.44073 19.1864 2.45997 19.0765 2.50876 18.9787C2.88376 17.925 4.19626 17.6175 4.75876 16.6612C5.38501 15.57 5.60626 14.2312 5.83876 13.0125C6.12376 11.4862 6.34876 9.94496 6.70501 8.43371C7.01626 7.10621 7.27876 5.75621 8.59876 5.10371C9.70278 4.61902 10.8996 4.38222 12.105 4.40996C13.1388 4.39367 14.1661 4.5757 15.1313 4.94621C16.3875 5.46746 16.7738 6.39371 17.1188 7.63871C17.8313 10.2112 17.9363 12.945 18.7725 15.4837C19.05 16.3312 19.4175 17.1262 20.1713 17.64C20.6775 17.985 21.3788 18.4162 21.5288 19.0687C21.5813 19.3425 21.54 19.3725 21.4125 19.59Z" fill="#BDBDBD"/>
</g>
<defs>
<clipPath id="clip0_202_1350">
<rect width="24" height="24" fill="white"/>
</clipPath>
</defs>
</svg>
