<svg width="20" height="20" viewBox="0 0 20 20" fill="none" xmlns="http://www.w3.org/2000/svg">
<path d="M16.8301 13.709H5.19922L5.7832 12.5195L15.4863 12.502C15.8145 12.502 16.0957 12.2676 16.1543 11.9434L17.498 4.42187C17.5332 4.22461 17.4805 4.02148 17.3516 3.86719C17.2879 3.79125 17.2084 3.73008 17.1187 3.68792C17.029 3.64577 16.9312 3.62363 16.832 3.62305L4.48828 3.58203L4.38281 3.08594C4.31641 2.76953 4.03125 2.53906 3.70703 2.53906H0.689453C0.506599 2.53906 0.331234 2.6117 0.201936 2.741C0.0726386 2.8703 0 3.04566 0 3.22852C0 3.41137 0.0726386 3.58674 0.201936 3.71603C0.331234 3.84533 0.506599 3.91797 0.689453 3.91797H3.14844L3.60938 6.10937L4.74414 11.6035L3.2832 13.9883C3.20733 14.0907 3.16164 14.2123 3.15128 14.3393C3.14093 14.4663 3.16633 14.5937 3.22461 14.707C3.3418 14.9395 3.57812 15.0859 3.83984 15.0859H5.06641C4.80492 15.4332 4.66368 15.8563 4.66406 16.291C4.66406 17.3965 5.5625 18.2949 6.66797 18.2949C7.77344 18.2949 8.67188 17.3965 8.67188 16.291C8.67188 15.8555 8.52734 15.4316 8.26953 15.0859H11.416C11.1545 15.4332 11.0133 15.8563 11.0137 16.291C11.0137 17.3965 11.9121 18.2949 13.0176 18.2949C14.123 18.2949 15.0215 17.3965 15.0215 16.291C15.0215 15.8555 14.877 15.4316 14.6191 15.0859H16.832C17.2109 15.0859 17.5215 14.7773 17.5215 14.3965C17.5203 14.2138 17.447 14.039 17.3175 13.9102C17.188 13.7814 17.0127 13.7091 16.8301 13.709ZM4.77539 4.94141L16.0215 4.97852L14.9199 11.1465L6.08594 11.1621L4.77539 4.94141ZM6.66797 16.9082C6.32812 16.9082 6.05078 16.6309 6.05078 16.291C6.05078 15.9512 6.32812 15.6738 6.66797 15.6738C7.00781 15.6738 7.28516 15.9512 7.28516 16.291C7.28516 16.4547 7.22013 16.6117 7.10439 16.7274C6.98864 16.8432 6.83166 16.9082 6.66797 16.9082ZM13.0176 16.9082C12.6777 16.9082 12.4004 16.6309 12.4004 16.291C12.4004 15.9512 12.6777 15.6738 13.0176 15.6738C13.3574 15.6738 13.6348 15.9512 13.6348 16.291C13.6348 16.4547 13.5697 16.6117 13.454 16.7274C13.3383 16.8432 13.1813 16.9082 13.0176 16.9082Z" fill="#029147"/>
</svg>
