<svg width="16" height="16" viewBox="0 0 16 16" fill="none" xmlns="http://www.w3.org/2000/svg">
<path d="M7.06058 1.67534C7.66299 1.4311 8.33684 1.4311 8.93925 1.67534L13.9379 3.702C14.1532 3.78922 14.3376 3.93872 14.4674 4.13137C14.5972 4.32402 14.6666 4.55103 14.6666 4.78334V11.2187C14.6665 11.4509 14.597 11.6777 14.4672 11.8702C14.3374 12.0628 14.1531 12.2122 13.9379 12.2993L8.93925 14.326C8.33684 14.5702 7.66299 14.5702 7.06058 14.326L2.06192 12.2993C1.84661 12.2121 1.66223 12.0626 1.53242 11.87C1.4026 11.6773 1.33325 11.4503 1.33325 11.218V4.784C1.33325 4.5517 1.4026 4.32468 1.53242 4.13204C1.66223 3.93939 1.84661 3.78988 2.06192 3.70267L7.06058 1.676V1.67534ZM8.56325 2.602C8.20196 2.4556 7.79787 2.4556 7.43658 2.602L6.15992 3.12L11.1779 5.07134L12.9573 4.38467L8.56258 2.60267L8.56325 2.602ZM9.79392 5.60534L4.80992 3.66667L3.05992 4.376L8.00059 6.29734L9.79392 5.60534ZM2.33325 11.2187C2.33334 11.2518 2.34328 11.2841 2.3618 11.3115C2.38032 11.3389 2.40659 11.3602 2.43725 11.3727L7.43658 13.3993C7.45725 13.408 7.47858 13.416 7.49992 13.4233V7.176L2.33325 5.16667V11.2187ZM8.56325 13.3993L13.5626 11.3727C13.5934 11.3602 13.6197 11.3388 13.6382 11.3112C13.6568 11.2837 13.6666 11.2512 13.6666 11.218V5.18267L8.49992 7.17734V13.424C8.52121 13.4165 8.54233 13.4085 8.56325 13.4V13.3993Z"/>
</svg>
