<svg width="18" height="18" viewBox="0 0 18 18" fill="none" xmlns="http://www.w3.org/2000/svg">
<path fill-rule="evenodd" clip-rule="evenodd" d="M12.2438 11.1743L16.2788 15.2093C16.4206 15.3512 16.5003 15.5436 16.5002 15.7443C16.5001 15.9449 16.4204 16.1373 16.2784 16.2791C16.1365 16.421 15.9441 16.5006 15.7434 16.5005C15.5428 16.5005 15.3504 16.4207 15.2086 16.2788L11.1736 12.2438C9.96735 13.178 8.45053 13.6177 6.93166 13.4733C5.4128 13.3289 4.00599 12.6113 2.99743 11.4665C1.98887 10.3217 1.45431 8.83562 1.50251 7.31067C1.55071 5.78572 2.17803 4.3364 3.25687 3.25756C4.33571 2.17872 5.78503 1.55139 7.30998 1.5032C8.83493 1.455 10.321 1.98956 11.4658 2.99812C12.6106 4.00668 13.3282 5.41349 13.4726 6.93235C13.617 8.45122 13.1773 9.96804 12.2431 11.1743H12.2438ZM7.50007 12C8.69354 12 9.83814 11.5259 10.682 10.682C11.526 9.83807 12.0001 8.69348 12.0001 7.50001C12.0001 6.30653 11.526 5.16194 10.682 4.31803C9.83814 3.47411 8.69354 3.00001 7.50007 3.00001C6.3066 3.00001 5.162 3.47411 4.31809 4.31803C3.47418 5.16194 3.00007 6.30653 3.00007 7.50001C3.00007 8.69348 3.47418 9.83807 4.31809 10.682C5.162 11.5259 6.3066 12 7.50007 12Z" fill="#CCCCCC"/>
</svg>
