<svg width="116" height="60" viewBox="0 0 116 60" fill="none" xmlns="http://www.w3.org/2000/svg">
<path d="M4.87891 1.09375V21H0.777344V1.09375H4.87891ZM12.8086 9.59766V12.7969H3.75781V9.59766H12.8086ZM13.7656 1.09375V4.30664H3.75781V1.09375H13.7656ZM14.9688 13.7539V13.4668C14.9688 12.3822 15.1237 11.3841 15.4336 10.4727C15.7435 9.55208 16.1947 8.75456 16.7871 8.08008C17.3796 7.4056 18.1087 6.88151 18.9746 6.50781C19.8405 6.125 20.834 5.93359 21.9551 5.93359C23.0762 5.93359 24.0742 6.125 24.9492 6.50781C25.8242 6.88151 26.5579 7.4056 27.1504 8.08008C27.752 8.75456 28.2077 9.55208 28.5176 10.4727C28.8275 11.3841 28.9824 12.3822 28.9824 13.4668V13.7539C28.9824 14.8294 28.8275 15.8275 28.5176 16.748C28.2077 17.6595 27.752 18.457 27.1504 19.1406C26.5579 19.8151 25.8288 20.3392 24.9629 20.7129C24.097 21.0866 23.1035 21.2734 21.9824 21.2734C20.8613 21.2734 19.8633 21.0866 18.9883 20.7129C18.1224 20.3392 17.3887 19.8151 16.7871 19.1406C16.1947 18.457 15.7435 17.6595 15.4336 16.748C15.1237 15.8275 14.9688 14.8294 14.9688 13.7539ZM18.9062 13.4668V13.7539C18.9062 14.3737 18.9609 14.9525 19.0703 15.4902C19.1797 16.028 19.3529 16.502 19.5898 16.9121C19.8359 17.3132 20.1549 17.6276 20.5469 17.8555C20.9388 18.0833 21.4173 18.1973 21.9824 18.1973C22.5293 18.1973 22.9987 18.0833 23.3906 17.8555C23.7826 17.6276 24.097 17.3132 24.334 16.9121C24.571 16.502 24.7441 16.028 24.8535 15.4902C24.972 14.9525 25.0312 14.3737 25.0312 13.7539V13.4668C25.0312 12.8652 24.972 12.3001 24.8535 11.7715C24.7441 11.2337 24.5664 10.7598 24.3203 10.3496C24.0833 9.93034 23.7689 9.60221 23.377 9.36523C22.985 9.12826 22.5111 9.00977 21.9551 9.00977C21.3991 9.00977 20.9251 9.12826 20.5332 9.36523C20.1504 9.60221 19.8359 9.93034 19.5898 10.3496C19.3529 10.7598 19.1797 11.2337 19.0703 11.7715C18.9609 12.3001 18.9062 12.8652 18.9062 13.4668ZM30.7734 13.7539V13.4668C30.7734 12.3822 30.9284 11.3841 31.2383 10.4727C31.5482 9.55208 31.9993 8.75456 32.5918 8.08008C33.1842 7.4056 33.9134 6.88151 34.7793 6.50781C35.6452 6.125 36.6387 5.93359 37.7598 5.93359C38.8809 5.93359 39.8789 6.125 40.7539 6.50781C41.6289 6.88151 42.3626 7.4056 42.9551 8.08008C43.5566 8.75456 44.0124 9.55208 44.3223 10.4727C44.6322 11.3841 44.7871 12.3822 44.7871 13.4668V13.7539C44.7871 14.8294 44.6322 15.8275 44.3223 16.748C44.0124 17.6595 43.5566 18.457 42.9551 19.1406C42.3626 19.8151 41.6335 20.3392 40.7676 20.7129C39.9017 21.0866 38.9082 21.2734 37.7871 21.2734C36.666 21.2734 35.668 21.0866 34.793 20.7129C33.9271 20.3392 33.1934 19.8151 32.5918 19.1406C31.9993 18.457 31.5482 17.6595 31.2383 16.748C30.9284 15.8275 30.7734 14.8294 30.7734 13.7539ZM34.7109 13.4668V13.7539C34.7109 14.3737 34.7656 14.9525 34.875 15.4902C34.9844 16.028 35.1576 16.502 35.3945 16.9121C35.6406 17.3132 35.9596 17.6276 36.3516 17.8555C36.7435 18.0833 37.222 18.1973 37.7871 18.1973C38.334 18.1973 38.8034 18.0833 39.1953 17.8555C39.5872 17.6276 39.9017 17.3132 40.1387 16.9121C40.3757 16.502 40.5488 16.028 40.6582 15.4902C40.7767 14.9525 40.8359 14.3737 40.8359 13.7539V13.4668C40.8359 12.8652 40.7767 12.3001 40.6582 11.7715C40.5488 11.2337 40.3711 10.7598 40.125 10.3496C39.888 9.93034 39.5736 9.60221 39.1816 9.36523C38.7897 9.12826 38.3158 9.00977 37.7598 9.00977C37.2038 9.00977 36.7298 9.12826 36.3379 9.36523C35.9551 9.60221 35.6406 9.93034 35.3945 10.3496C35.1576 10.7598 34.9844 11.2337 34.875 11.7715C34.7656 12.3001 34.7109 12.8652 34.7109 13.4668ZM55.9434 17.7734V0H59.9082V21H56.3398L55.9434 17.7734ZM46.5918 13.7812V13.4941C46.5918 12.3639 46.7194 11.3385 46.9746 10.418C47.2298 9.48828 47.6035 8.69076 48.0957 8.02539C48.5879 7.36003 49.194 6.84505 49.9141 6.48047C50.6341 6.11589 51.4544 5.93359 52.375 5.93359C53.2409 5.93359 53.9974 6.11589 54.6445 6.48047C55.3008 6.84505 55.8568 7.36458 56.3125 8.03906C56.7773 8.70443 57.151 9.49284 57.4336 10.4043C57.7161 11.3066 57.9212 12.2956 58.0488 13.3711V14C57.9212 15.0299 57.7161 15.987 57.4336 16.8711C57.151 17.7552 56.7773 18.5299 56.3125 19.1953C55.8568 19.8516 55.3008 20.362 54.6445 20.7266C53.9883 21.0911 53.2227 21.2734 52.3477 21.2734C51.4271 21.2734 50.6068 21.0866 49.8867 20.7129C49.1758 20.3392 48.5742 19.8151 48.082 19.1406C47.599 18.4661 47.2298 17.6732 46.9746 16.7617C46.7194 15.8503 46.5918 14.8568 46.5918 13.7812ZM50.5293 13.4941V13.7812C50.5293 14.3919 50.5749 14.9616 50.666 15.4902C50.7663 16.0189 50.9258 16.4883 51.1445 16.8984C51.3724 17.2995 51.6641 17.6139 52.0195 17.8418C52.3841 18.0605 52.8262 18.1699 53.3457 18.1699C54.0202 18.1699 54.5762 18.0195 55.0137 17.7188C55.4512 17.4089 55.7839 16.985 56.0117 16.4473C56.2487 15.9095 56.3854 15.2897 56.4219 14.5879V12.7969C56.3945 12.2227 56.3125 11.7077 56.1758 11.252C56.0482 10.7871 55.8568 10.3906 55.6016 10.0625C55.3555 9.73438 55.0456 9.47917 54.6719 9.29688C54.3073 9.11458 53.8743 9.02344 53.373 9.02344C52.8626 9.02344 52.4251 9.14193 52.0605 9.37891C51.696 9.60677 51.3997 9.92122 51.1719 10.3223C50.9531 10.7233 50.7891 11.1973 50.6797 11.7441C50.5794 12.2819 50.5293 12.8652 50.5293 13.4941ZM66.9219 9.26953V21H62.9707V6.20703H66.6758L66.9219 9.26953ZM66.375 13.084H65.2812C65.2812 12.054 65.4043 11.1061 65.6504 10.2402C65.9056 9.36523 66.2747 8.60872 66.7578 7.9707C67.25 7.32357 67.8561 6.82227 68.5762 6.4668C69.2962 6.11133 70.1302 5.93359 71.0781 5.93359C71.7344 5.93359 72.3359 6.03385 72.8828 6.23438C73.4297 6.42578 73.8991 6.73112 74.291 7.15039C74.6921 7.56055 75.002 8.09831 75.2207 8.76367C75.4395 9.41992 75.5488 10.2083 75.5488 11.1289V21H71.6113V11.5664C71.6113 10.8919 71.5202 10.3724 71.3379 10.0078C71.1556 9.64323 70.8958 9.38802 70.5586 9.24219C70.2305 9.09635 69.834 9.02344 69.3691 9.02344C68.8587 9.02344 68.4121 9.12826 68.0293 9.33789C67.6556 9.54753 67.3457 9.83919 67.0996 10.2129C66.8535 10.5775 66.6712 11.0059 66.5527 11.498C66.4342 11.9902 66.375 12.5189 66.375 13.084ZM75.1797 12.6328L73.7715 12.8105C73.7715 11.8444 73.89 10.9466 74.127 10.1172C74.373 9.28776 74.7331 8.55859 75.207 7.92969C75.6901 7.30078 76.2871 6.81315 76.998 6.4668C77.709 6.11133 78.5293 5.93359 79.459 5.93359C80.1699 5.93359 80.8171 6.03841 81.4004 6.24805C81.9837 6.44857 82.4805 6.77214 82.8906 7.21875C83.3099 7.65625 83.6289 8.23047 83.8477 8.94141C84.0755 9.65234 84.1895 10.5228 84.1895 11.5527V21H80.2383V11.5527C80.2383 10.8691 80.1471 10.3496 79.9648 9.99414C79.7917 9.62956 79.5365 9.37891 79.1992 9.24219C78.8711 9.09635 78.4792 9.02344 78.0234 9.02344C77.5495 9.02344 77.1348 9.11914 76.7793 9.31055C76.4238 9.49284 76.1276 9.74805 75.8906 10.0762C75.6536 10.4043 75.4759 10.7871 75.3574 11.2246C75.2389 11.653 75.1797 12.1224 75.1797 12.6328ZM95.2227 17.6641V11.0742C95.2227 10.6003 95.1452 10.1947 94.9902 9.85742C94.8353 9.51107 94.5938 9.24219 94.2656 9.05078C93.9466 8.85938 93.5319 8.76367 93.0215 8.76367C92.584 8.76367 92.2057 8.84115 91.8867 8.99609C91.5677 9.14193 91.3216 9.35612 91.1484 9.63867C90.9753 9.91211 90.8887 10.2357 90.8887 10.6094H86.9512C86.9512 9.98047 87.097 9.38346 87.3887 8.81836C87.6803 8.25326 88.1042 7.75651 88.6602 7.32812C89.2161 6.89062 89.877 6.54883 90.6426 6.30273C91.4173 6.05664 92.2832 5.93359 93.2402 5.93359C94.3887 5.93359 95.4095 6.125 96.3027 6.50781C97.196 6.89062 97.8978 7.46484 98.4082 8.23047C98.9277 8.99609 99.1875 9.95312 99.1875 11.1016V17.4316C99.1875 18.2428 99.2376 18.9082 99.3379 19.4277C99.4382 19.9382 99.584 20.3848 99.7754 20.7676V21H95.7969C95.6055 20.599 95.4596 20.0977 95.3594 19.4961C95.2682 18.8854 95.2227 18.2747 95.2227 17.6641ZM95.7422 11.9902L95.7695 14.2188H93.5684C93.0488 14.2188 92.5977 14.278 92.2148 14.3965C91.832 14.515 91.5176 14.6836 91.2715 14.9023C91.0254 15.112 90.8431 15.3581 90.7246 15.6406C90.6152 15.9232 90.5605 16.2331 90.5605 16.5703C90.5605 16.9076 90.638 17.2129 90.793 17.4863C90.9479 17.7507 91.1712 17.9603 91.4629 18.1152C91.7546 18.2611 92.0964 18.334 92.4883 18.334C93.0807 18.334 93.5957 18.2155 94.0332 17.9785C94.4707 17.7415 94.8079 17.4499 95.0449 17.1035C95.291 16.7572 95.4186 16.429 95.4277 16.1191L96.4668 17.7871C96.321 18.1608 96.1204 18.5482 95.8652 18.9492C95.6191 19.3503 95.3047 19.7285 94.9219 20.084C94.5391 20.4303 94.0788 20.7174 93.541 20.9453C93.0033 21.1641 92.3652 21.2734 91.627 21.2734C90.6882 21.2734 89.8359 21.0866 89.0703 20.7129C88.3138 20.3301 87.7122 19.806 87.2656 19.1406C86.8281 18.4661 86.6094 17.7005 86.6094 16.8438C86.6094 16.069 86.7552 15.3809 87.0469 14.7793C87.3385 14.1777 87.7669 13.6719 88.332 13.2617C88.9062 12.8424 89.6217 12.528 90.4785 12.3184C91.3353 12.0996 92.3288 11.9902 93.459 11.9902H95.7422ZM106.16 9.05078V26.6875H102.223V6.20703H105.873L106.16 9.05078ZM115.525 13.4395V13.7266C115.525 14.8021 115.398 15.8001 115.143 16.7207C114.896 17.6413 114.532 18.4434 114.049 19.127C113.566 19.8014 112.964 20.3301 112.244 20.7129C111.533 21.0866 110.713 21.2734 109.783 21.2734C108.881 21.2734 108.097 21.0911 107.432 20.7266C106.766 20.362 106.206 19.8516 105.75 19.1953C105.303 18.5299 104.943 17.7598 104.67 16.8848C104.396 16.0098 104.187 15.071 104.041 14.0684V13.3164C104.187 12.2409 104.396 11.2565 104.67 10.3633C104.943 9.46094 105.303 8.68164 105.75 8.02539C106.206 7.36003 106.762 6.84505 107.418 6.48047C108.083 6.11589 108.863 5.93359 109.756 5.93359C110.695 5.93359 111.52 6.11133 112.23 6.4668C112.951 6.82227 113.552 7.33268 114.035 7.99805C114.527 8.66341 114.896 9.45638 115.143 10.377C115.398 11.2975 115.525 12.3184 115.525 13.4395ZM111.574 13.7266V13.4395C111.574 12.8105 111.52 12.2318 111.41 11.7031C111.31 11.1654 111.146 10.696 110.918 10.2949C110.699 9.89388 110.408 9.58398 110.043 9.36523C109.688 9.13737 109.255 9.02344 108.744 9.02344C108.206 9.02344 107.746 9.11003 107.363 9.2832C106.99 9.45638 106.684 9.70703 106.447 10.0352C106.21 10.3633 106.033 10.7552 105.914 11.2109C105.796 11.6667 105.723 12.1816 105.695 12.7559V14.6562C105.741 15.3307 105.868 15.9368 106.078 16.4746C106.288 17.0033 106.611 17.4225 107.049 17.7324C107.486 18.0423 108.061 18.1973 108.771 18.1973C109.291 18.1973 109.729 18.0833 110.084 17.8555C110.439 17.6185 110.727 17.2949 110.945 16.8848C111.173 16.4746 111.333 16.0007 111.424 15.4629C111.524 14.9251 111.574 14.3464 111.574 13.7266ZM3.58008 34.0938V54H1.89844V34.0938H3.58008ZM10.2383 42.3652V54H8.61133V39.207H10.1699L10.2383 42.3652ZM9.86914 45.6875L9.14453 45.2773C9.19922 44.4023 9.37695 43.582 9.67773 42.8164C9.97852 42.0508 10.3841 41.3763 10.8945 40.793C11.4141 40.2096 12.0202 39.7539 12.7129 39.4258C13.4147 39.0977 14.1895 38.9336 15.0371 38.9336C15.7754 38.9336 16.4362 39.0339 17.0195 39.2344C17.6029 39.4349 18.0996 39.7539 18.5098 40.1914C18.9199 40.6289 19.2298 41.1895 19.4395 41.873C19.6582 42.5566 19.7676 43.3906 19.7676 44.375V54H18.127V44.3613C18.127 43.3405 17.9857 42.543 17.7031 41.9688C17.4206 41.3854 17.0195 40.9707 16.5 40.7246C15.9805 40.4785 15.3652 40.3555 14.6543 40.3555C13.8704 40.3555 13.1823 40.5286 12.5898 40.875C12.0065 41.2122 11.5143 41.6543 11.1133 42.2012C10.7214 42.7389 10.4206 43.3177 10.2109 43.9375C10.0013 44.5482 9.88737 45.1315 9.86914 45.6875ZM32.8652 50.2266C32.8652 49.8255 32.765 49.429 32.5645 49.0371C32.3639 48.6452 31.9766 48.2852 31.4023 47.957C30.8372 47.6289 30.0033 47.3509 28.9004 47.123C28.0801 46.9408 27.3464 46.7357 26.6992 46.5078C26.0612 46.2799 25.5234 46.0065 25.0859 45.6875C24.6484 45.3685 24.3158 44.9857 24.0879 44.5391C23.86 44.0924 23.7461 43.5638 23.7461 42.9531C23.7461 42.4062 23.8646 41.8913 24.1016 41.4082C24.3477 40.916 24.694 40.4876 25.1406 40.123C25.5964 39.7493 26.1432 39.4577 26.7812 39.248C27.4284 39.0384 28.153 38.9336 28.9551 38.9336C30.0944 38.9336 31.0697 39.1296 31.8809 39.5215C32.7012 39.9043 33.3255 40.4284 33.7539 41.0938C34.1914 41.7591 34.4102 42.5111 34.4102 43.3496H32.7832C32.7832 42.8392 32.6328 42.3561 32.332 41.9004C32.0404 41.4447 31.6074 41.071 31.0332 40.7793C30.4681 40.4876 29.7754 40.3418 28.9551 40.3418C28.1074 40.3418 27.4193 40.4694 26.8906 40.7246C26.362 40.9798 25.9746 41.3034 25.7285 41.6953C25.4915 42.0872 25.373 42.4928 25.373 42.9121C25.373 43.2402 25.4232 43.541 25.5234 43.8145C25.6328 44.0788 25.8242 44.3249 26.0977 44.5527C26.3802 44.7806 26.7812 44.9948 27.3008 45.1953C27.8203 45.3958 28.4948 45.5918 29.3242 45.7832C30.5182 46.0475 31.4935 46.3711 32.25 46.7539C33.0156 47.1276 33.5807 47.5924 33.9453 48.1484C34.3099 48.6953 34.4922 49.3607 34.4922 50.1445C34.4922 50.7552 34.3646 51.3158 34.1094 51.8262C33.8542 52.3275 33.485 52.7604 33.002 53.125C32.528 53.4896 31.9538 53.7721 31.2793 53.9727C30.6139 54.1732 29.8665 54.2734 29.0371 54.2734C27.7884 54.2734 26.7311 54.0684 25.8652 53.6582C25.0085 53.2389 24.3568 52.6921 23.9102 52.0176C23.4727 51.334 23.2539 50.6094 23.2539 49.8438H24.8809C24.9355 50.6094 25.1771 51.2155 25.6055 51.6621C26.0339 52.0996 26.5579 52.4095 27.1777 52.5918C27.8066 52.7741 28.4264 52.8652 29.0371 52.8652C29.8757 52.8652 30.5775 52.7422 31.1426 52.4961C31.7077 52.25 32.1361 51.9264 32.4277 51.5254C32.7194 51.1243 32.8652 50.6914 32.8652 50.2266ZM40.0156 39.207V54H38.3887V39.207H40.0156ZM38.1016 34.9277C38.1016 34.6178 38.1973 34.3581 38.3887 34.1484C38.5892 33.9297 38.8626 33.8203 39.209 33.8203C39.5553 33.8203 39.8288 33.9297 40.0293 34.1484C40.2389 34.3581 40.3438 34.6178 40.3438 34.9277C40.3438 35.2285 40.2389 35.4883 40.0293 35.707C39.8288 35.9167 39.5553 36.0215 39.209 36.0215C38.8626 36.0215 38.5892 35.9167 38.3887 35.707C38.1973 35.4883 38.1016 35.2285 38.1016 34.9277ZM54.2207 39.207H55.7383V53.7402C55.7383 55.0254 55.4922 56.1283 55 57.0488C54.5169 57.9694 53.8288 58.6758 52.9355 59.168C52.0514 59.6602 51.0078 59.9062 49.8047 59.9062C49.194 59.9062 48.5651 59.8105 47.918 59.6191C47.2799 59.4368 46.6738 59.1543 46.0996 58.7715C45.5345 58.3978 45.0514 57.9329 44.6504 57.377L45.5664 56.3789C46.168 57.1081 46.8105 57.6413 47.4941 57.9785C48.1777 58.3249 48.916 58.498 49.709 58.498C50.6478 58.498 51.4408 58.3112 52.0879 57.9375C52.7441 57.5638 53.2409 57.026 53.5781 56.3242C53.9245 55.6224 54.0977 54.7793 54.0977 53.7949V42.4609L54.2207 39.207ZM43.8301 46.7539V46.4668C43.8301 45.3184 43.9577 44.2839 44.2129 43.3633C44.4772 42.4336 44.8555 41.6406 45.3477 40.9844C45.8398 40.319 46.4368 39.8132 47.1387 39.4668C47.8496 39.1113 48.6517 38.9336 49.5449 38.9336C50.4017 38.9336 51.1628 39.0749 51.8281 39.3574C52.4935 39.64 53.0677 40.0456 53.5508 40.5742C54.0339 41.1029 54.4212 41.7318 54.7129 42.4609C55.0137 43.1901 55.2324 44.0013 55.3691 44.8945V48.5449C55.2598 49.3835 55.0592 50.1536 54.7676 50.8555C54.4759 51.5482 54.0885 52.1543 53.6055 52.6738C53.1224 53.1842 52.5391 53.5807 51.8555 53.8633C51.181 54.1367 50.4017 54.2734 49.5176 54.2734C48.6335 54.2734 47.8405 54.0911 47.1387 53.7266C46.4368 53.362 45.8398 52.847 45.3477 52.1816C44.8555 51.5072 44.4772 50.7096 44.2129 49.7891C43.9577 48.8685 43.8301 47.8568 43.8301 46.7539ZM45.4707 46.4668V46.7539C45.4707 47.6198 45.5573 48.4219 45.7305 49.1602C45.9036 49.8984 46.168 50.541 46.5234 51.0879C46.8789 51.6348 47.3301 52.0632 47.877 52.373C48.4238 52.6829 49.0664 52.8379 49.8047 52.8379C50.7435 52.8379 51.5319 52.6602 52.1699 52.3047C52.8079 51.9401 53.3138 51.4616 53.6875 50.8691C54.0612 50.2676 54.3346 49.6113 54.5078 48.9004V44.6484C54.4076 44.1654 54.2526 43.6732 54.043 43.1719C53.8424 42.6706 53.5599 42.2103 53.1953 41.791C52.8398 41.3626 52.3841 41.0208 51.8281 40.7656C51.2812 40.5013 50.6159 40.3691 49.832 40.3691C49.0846 40.3691 48.4329 40.5241 47.877 40.834C47.3301 41.1439 46.8789 41.5768 46.5234 42.1328C46.168 42.6797 45.9036 43.3223 45.7305 44.0605C45.5573 44.7988 45.4707 45.6009 45.4707 46.4668ZM61.6445 33V54H60.0176V33H61.6445ZM61.2754 45.6875L60.5508 45.2773C60.6055 44.4023 60.7832 43.582 61.084 42.8164C61.3848 42.0508 61.7904 41.3763 62.3008 40.793C62.8203 40.2096 63.4264 39.7539 64.1191 39.4258C64.821 39.0977 65.5957 38.9336 66.4434 38.9336C67.1816 38.9336 67.8424 39.0339 68.4258 39.2344C69.0091 39.4349 69.5059 39.7539 69.916 40.1914C70.3262 40.6289 70.6361 41.1895 70.8457 41.873C71.0645 42.5566 71.1738 43.3906 71.1738 44.375V54H69.5332V44.3613C69.5332 43.3405 69.3919 42.543 69.1094 41.9688C68.8268 41.3854 68.4258 40.9707 67.9062 40.7246C67.3867 40.4785 66.7715 40.3555 66.0605 40.3555C65.2767 40.3555 64.5885 40.5286 63.9961 40.875C63.4128 41.2122 62.9206 41.6543 62.5195 42.2012C62.1276 42.7389 61.8268 43.3177 61.6172 43.9375C61.4076 44.5482 61.2936 45.1315 61.2754 45.6875ZM80.9766 39.207V40.5469H73.5664V39.207H80.9766ZM76.2871 35.4062H77.9141V50.4043C77.9141 51.0879 78.0052 51.6029 78.1875 51.9492C78.3698 52.2956 78.6068 52.528 78.8984 52.6465C79.1901 52.765 79.5046 52.8242 79.8418 52.8242C80.0879 52.8242 80.3249 52.8105 80.5527 52.7832C80.7806 52.7467 80.9857 52.7103 81.168 52.6738L81.2363 54.0547C81.0358 54.1185 80.776 54.1686 80.457 54.2051C80.138 54.2507 79.819 54.2734 79.5 54.2734C78.8711 54.2734 78.3151 54.1595 77.832 53.9316C77.349 53.6947 76.9707 53.2936 76.6973 52.7285C76.4238 52.1543 76.2871 51.375 76.2871 50.3906V35.4062ZM93.2676 50.2266C93.2676 49.8255 93.1673 49.429 92.9668 49.0371C92.7663 48.6452 92.3789 48.2852 91.8047 47.957C91.2396 47.6289 90.4056 47.3509 89.3027 47.123C88.4824 46.9408 87.7487 46.7357 87.1016 46.5078C86.4635 46.2799 85.9258 46.0065 85.4883 45.6875C85.0508 45.3685 84.7181 44.9857 84.4902 44.5391C84.2624 44.0924 84.1484 43.5638 84.1484 42.9531C84.1484 42.4062 84.2669 41.8913 84.5039 41.4082C84.75 40.916 85.0964 40.4876 85.543 40.123C85.9987 39.7493 86.5456 39.4577 87.1836 39.248C87.8307 39.0384 88.5553 38.9336 89.3574 38.9336C90.4967 38.9336 91.472 39.1296 92.2832 39.5215C93.1035 39.9043 93.7279 40.4284 94.1562 41.0938C94.5938 41.7591 94.8125 42.5111 94.8125 43.3496H93.1855C93.1855 42.8392 93.0352 42.3561 92.7344 41.9004C92.4427 41.4447 92.0098 41.071 91.4355 40.7793C90.8704 40.4876 90.1777 40.3418 89.3574 40.3418C88.5098 40.3418 87.8216 40.4694 87.293 40.7246C86.7643 40.9798 86.377 41.3034 86.1309 41.6953C85.8939 42.0872 85.7754 42.4928 85.7754 42.9121C85.7754 43.2402 85.8255 43.541 85.9258 43.8145C86.0352 44.0788 86.2266 44.3249 86.5 44.5527C86.7826 44.7806 87.1836 44.9948 87.7031 45.1953C88.2227 45.3958 88.8971 45.5918 89.7266 45.7832C90.9206 46.0475 91.8958 46.3711 92.6523 46.7539C93.418 47.1276 93.9831 47.5924 94.3477 48.1484C94.7122 48.6953 94.8945 49.3607 94.8945 50.1445C94.8945 50.7552 94.7669 51.3158 94.5117 51.8262C94.2565 52.3275 93.8874 52.7604 93.4043 53.125C92.9303 53.4896 92.3561 53.7721 91.6816 53.9727C91.0163 54.1732 90.2689 54.2734 89.4395 54.2734C88.1908 54.2734 87.1335 54.0684 86.2676 53.6582C85.4108 53.2389 84.7591 52.6921 84.3125 52.0176C83.875 51.334 83.6562 50.6094 83.6562 49.8438H85.2832C85.3379 50.6094 85.5794 51.2155 86.0078 51.6621C86.4362 52.0996 86.9603 52.4095 87.5801 52.5918C88.209 52.7741 88.8288 52.8652 89.4395 52.8652C90.278 52.8652 90.9798 52.7422 91.5449 52.4961C92.11 52.25 92.5384 51.9264 92.8301 51.5254C93.1217 51.1243 93.2676 50.6914 93.2676 50.2266Z" fill="white"/>
</svg>
