<svg width="18" height="18" viewBox="0 0 18 18" fill="none" xmlns="http://www.w3.org/2000/svg">
<path d="M17.4572 6.00966C15.802 5.78048 14.1213 5.52583 12.4661 5.29665C12.3388 5.27118 12.186 5.24572 12.0587 5.24572C11.3711 3.8197 10.6581 2.41914 9.97059 1.01859C9.86873 0.789405 9.76687 0.585687 9.66501 0.38197C9.41036 -0.127323 8.5955 -0.127323 8.34085 0.38197C7.60237 1.88439 6.8639 3.41226 6.09996 4.91468C6.04903 5.01654 5.9981 5.14386 5.94717 5.24572C4.39383 5.4749 2.81502 5.70408 1.26167 5.93327C1.03249 5.95873 0.777845 6.00966 0.548663 6.03513C-0.0370243 6.11152 -0.164348 6.95185 0.217622 7.30836C1.41446 8.47973 2.63677 9.65111 3.8336 10.8225L4.06279 11.0517C3.80814 12.5541 3.55349 14.0565 3.29885 15.5589C3.24792 15.7881 3.22245 16.0173 3.17152 16.2719C3.06966 16.934 3.68082 17.4688 4.29197 17.1377C5.76892 16.3483 7.27133 15.5589 8.74828 14.795C8.82468 14.744 8.92654 14.7186 9.00293 14.6676C10.3526 15.3807 11.7276 16.0937 13.0773 16.8067C13.281 16.9085 13.5102 17.0359 13.7139 17.1377C14.3505 17.4688 14.9362 16.934 14.8343 16.2719C14.5542 14.6167 14.2741 12.9615 13.9685 11.3063C13.9685 11.2299 13.9431 11.1535 13.9176 11.0771C15.0381 10.0076 16.133 8.91263 17.2535 7.81765C17.4317 7.6394 17.61 7.48661 17.7628 7.30836C18.1702 6.92639 18.0429 6.11152 17.4572 6.00966ZM13.0518 9.77843C12.899 9.93122 12.7208 10.084 12.5934 10.2368C12.2879 10.5678 12.3897 10.9753 12.4661 11.3572C12.6444 12.3249 12.7972 13.2926 12.9754 14.2602C13.0263 14.5149 13.0773 14.795 13.1027 15.0751C12.0842 14.5403 11.0656 14.0056 10.0215 13.4708C9.8178 13.3689 9.58862 13.2416 9.3849 13.1398C9.35944 13.1143 9.33397 13.1143 9.28304 13.0888C9.25758 13.0888 9.23211 13.0634 9.20665 13.0634C9.07932 13.0379 8.952 13.0379 8.82468 13.0634C8.79921 13.0634 8.77375 13.0888 8.72282 13.0888C8.69735 13.0888 8.64643 13.1143 8.62096 13.1398C7.37319 13.8018 6.15089 14.4385 4.90312 15.1005C5.10684 13.9546 5.28509 12.8087 5.48881 11.6628C5.51427 11.4591 5.5652 11.2299 5.59067 11.0262C5.66706 10.5169 5.41241 10.3132 5.10684 10.0076C4.39383 9.32007 3.70628 8.63252 2.99327 7.94497C2.76409 7.74126 2.56037 7.53754 2.33119 7.30836C3.52803 7.13011 4.72487 6.95185 5.94717 6.79907C6.15089 6.7736 6.40553 6.74814 6.60925 6.69721C6.99122 6.59535 7.09308 6.28977 7.24587 5.9842C7.67877 5.09293 8.11167 4.22713 8.54457 3.33587C8.67189 3.05576 8.82468 2.80111 8.952 2.521C9.48676 3.59052 10.0215 4.6855 10.5563 5.75501C10.6581 5.95873 10.7345 6.16245 10.8619 6.36617C11.0656 6.72267 11.3711 6.72267 11.7276 6.7736C12.6953 6.92639 13.6884 7.05371 14.6561 7.2065C14.9617 7.25743 15.2927 7.30836 15.5983 7.33382C14.7579 8.12323 13.9176 8.96356 13.0518 9.77843Z" fill="#ACAAAA"/>
</svg>
