<svg width="19" height="16" viewBox="0 0 19 16" fill="none" xmlns="http://www.w3.org/2000/svg">
<path d="M16.8644 1.19705C16.5875 1.08167 16.3336 1.01243 16.0336 0.966281C15.1567 0.804742 14.2798 0.620127 13.3798 0.458588C12.6413 0.320127 11.9259 0.181665 11.1875 0.0432038C10.6336 -0.0491039 10.149 -0.00294999 9.6644 0.273973C9.54902 0.343204 9.41056 0.412435 9.29517 0.481665C7.79517 1.35859 6.27209 2.23551 4.77209 3.08936C3.52594 3.80474 2.27979 4.52013 1.03363 5.25859C-0.0279067 5.88167 -0.281753 7.1509 0.318247 8.16628C0.756709 8.92782 1.19517 9.68936 1.63363 10.4509C1.74902 10.6586 1.8644 10.8663 2.00286 11.074C2.37209 11.7201 2.74132 12.3663 3.11055 13.0124C3.59517 13.8432 3.98748 14.8124 5.00286 15.0663C5.78748 15.2509 6.38748 14.9278 7.01056 14.5586C7.67979 14.1663 8.34902 13.797 8.99517 13.4047C10.7029 12.4586 12.3875 11.4894 14.0721 10.5201C14.4644 10.2894 14.8336 10.0817 15.2259 9.8509C15.6875 9.57397 15.9875 9.15859 16.1721 8.6509C16.2644 8.39705 16.3567 8.1432 16.4259 7.88936C16.749 6.96628 17.0721 6.0432 17.3952 5.12013C17.6029 4.52013 17.9029 3.89705 17.9952 3.2509C18.0875 2.42013 17.6259 1.56628 16.8644 1.19705ZM16.6336 3.08936C16.6336 3.15859 16.6106 3.20474 16.5875 3.27397C16.5413 3.43551 16.4721 3.62013 16.4029 3.78167C16.1029 4.63551 15.8029 5.48936 15.5029 6.3432C15.2721 6.98936 15.0875 7.65859 14.8336 8.28167C14.7182 8.60474 14.3721 8.7432 14.0721 8.90474C12.6182 9.75859 11.1413 10.5894 9.68748 11.4432C8.44133 12.1586 7.17209 12.8971 5.92594 13.6124C5.90286 13.6355 5.85671 13.6586 5.83363 13.6586C5.74132 13.7047 5.81055 13.6817 5.71825 13.7047C5.69517 13.7047 5.60286 13.7278 5.57979 13.7278C5.51056 13.7278 5.39517 13.7047 5.39517 13.7278C5.09517 13.6586 5.00286 13.5201 4.81825 13.2201C4.37979 12.4586 3.94132 11.6971 3.50286 10.9355C3.38748 10.7509 3.27209 10.5663 3.17979 10.3586C2.83363 9.73551 2.4644 9.13551 2.11825 8.51244C1.93363 8.16628 1.72594 7.82013 1.54132 7.49705C1.51825 7.42782 1.47209 7.38167 1.44902 7.31243C1.33363 7.12782 1.33363 6.9432 1.42594 6.71243C1.47209 6.57397 1.61055 6.48167 1.79517 6.36628C1.97979 6.27397 2.14132 6.15859 2.30286 6.06628C2.97209 5.67397 3.64132 5.30474 4.31056 4.91243C5.92594 3.98936 7.54133 3.0432 9.15671 2.12013C9.54902 1.88936 9.94133 1.65859 10.3567 1.42782C10.749 1.22013 11.2336 1.40474 11.6259 1.47397C13.1029 1.7509 14.5798 2.00474 16.0336 2.32782C16.1952 2.37397 16.2644 2.39705 16.3567 2.4432C16.449 2.51243 16.4952 2.58167 16.5644 2.72013C16.5644 2.7432 16.5875 2.78936 16.5875 2.81243C16.5875 2.83551 16.5875 2.85859 16.6106 2.88167C16.6106 2.88167 16.6106 2.90474 16.6106 2.92782C16.6336 3.02013 16.6336 3.06628 16.6336 3.08936C16.6336 3.08936 16.6106 3.08936 16.6336 3.08936Z" />
<path d="M13.6335 4.47397C13.6105 4.45089 13.6105 4.42782 13.5874 4.38166C13.5643 4.35859 13.5643 4.33551 13.5412 4.31243C13.3797 4.05859 13.1489 3.82782 12.872 3.71243C12.6874 3.62013 12.5259 3.57397 12.3182 3.55089C12.1105 3.52782 11.9489 3.52782 11.7412 3.57397C11.0951 3.68936 10.5182 4.26628 10.4028 4.91243C10.3566 5.1432 10.3566 5.32782 10.4028 5.58166C10.4259 5.7432 10.4951 5.90474 10.5643 6.06628C10.7028 6.36628 10.9566 6.62012 11.2566 6.78166C11.5335 6.9432 11.9028 7.03551 12.2259 7.01243C12.6412 6.96628 12.9874 6.82782 13.2874 6.55089C13.5412 6.32012 13.7489 5.97397 13.8182 5.62782C13.8643 5.37397 13.8643 5.16628 13.8182 4.91243C13.7489 4.77397 13.7028 4.61243 13.6335 4.47397ZM12.4335 5.32782C12.4335 5.35089 12.4105 5.37397 12.4105 5.39705C12.3874 5.42012 12.3643 5.46628 12.3412 5.48936C12.3182 5.51243 12.3182 5.51243 12.2951 5.53551C12.272 5.55859 12.2489 5.58166 12.2028 5.58166C12.1566 5.58166 12.1335 5.60474 12.1105 5.60474C12.0874 5.60474 12.0412 5.60474 12.0182 5.60474C11.9951 5.60474 11.972 5.58166 11.9489 5.58166C11.9028 5.55859 11.8797 5.53551 11.8566 5.51243C11.8335 5.48936 11.8335 5.48936 11.8105 5.46628C11.7874 5.4432 11.7643 5.42012 11.7643 5.37397C11.7643 5.35089 11.7412 5.30474 11.7412 5.28166C11.7412 5.25859 11.7412 5.21243 11.7412 5.18936C11.7412 5.16628 11.7412 5.1432 11.7643 5.12013C11.7874 5.07397 11.8105 5.05089 11.8335 5.02782C11.8566 5.00474 11.8566 5.00474 11.8797 4.98166C11.9028 4.95859 11.9259 4.93551 11.972 4.93551C11.9951 4.93551 12.0412 4.91243 12.0643 4.91243C12.0874 4.91243 12.1105 4.91243 12.1566 4.91243C12.1797 4.91243 12.2259 4.93551 12.2489 4.93551C12.272 4.93551 12.2951 4.95859 12.3412 4.98166C12.3643 5.00474 12.3643 5.00474 12.3874 5.02782C12.4105 5.05089 12.4105 5.05089 12.4105 5.07397C12.4105 5.07397 12.4105 5.09705 12.4335 5.09705C12.4566 5.12012 12.4566 5.16628 12.4566 5.18936C12.4335 5.25859 12.4335 5.30474 12.4335 5.32782Z"/>
</svg>
