<svg width="16" height="18" viewBox="0 0 16 18" xmlns="http://www.w3.org/2000/svg">
<path d="M8.74682 8.01565C10.6312 7.67815 11.9531 5.9344 12.0093 4.07815V4.0219C11.9812 2.3344 10.9124 0.843779 9.33744 0.253154C7.79057 -0.337471 5.90619 0.168779 4.86557 1.4344C3.79682 2.75628 3.59995 4.64065 4.47182 6.13128C5.34369 7.59378 7.05932 8.32503 8.74682 8.01565ZM5.84994 2.7844C6.35619 1.94065 7.42494 1.4344 8.38119 1.63128C9.59057 1.85628 10.4062 2.86878 10.4343 4.07815C10.4343 5.09065 9.78744 6.07503 8.85932 6.3844C7.81869 6.75003 6.74994 6.46878 6.04682 5.5969C6.04682 5.56878 6.01869 5.56878 6.01869 5.54065C5.96244 5.4844 5.93432 5.40003 5.87807 5.31565C5.84994 5.2594 5.82182 5.23128 5.79369 5.17503L5.70932 5.0344C5.59682 4.78128 5.54057 4.4719 5.54057 4.30315C5.45619 3.71253 5.56869 3.2344 5.84994 2.7844Z"/>
<path d="M14.7937 12.6282C13.8937 11.1094 12.4875 9.9563 10.8562 9.2813C7.48125 7.9313 3.57187 9.19692 1.4625 12.1219C0.365625 13.6407 0 15.3844 0 17.2125C0 17.6344 0.365625 18 0.7875 18H15.1031C15.3281 18 15.525 17.9157 15.6375 17.775C15.6375 17.775 15.6375 17.775 15.6656 17.775C15.6656 17.775 15.6656 17.775 15.6656 17.7469C15.8063 17.6344 15.8906 17.4375 15.8906 17.2125C15.8906 15.5813 15.6375 14.0344 14.7937 12.6282ZM1.60312 16.425C1.60312 16.1157 1.63125 15.8344 1.6875 15.5532C1.82812 14.7657 2.05312 14.175 2.44687 13.5282C3.15 12.3188 4.275 11.3344 5.5125 10.8282C6.91875 10.2657 8.38125 10.2094 9.7875 10.6313C11.1094 11.025 12.3469 11.925 13.1344 13.0219C13.6406 13.7532 13.95 14.4 14.1469 15.2719C14.2312 15.6657 14.2875 16.0594 14.3156 16.4532H1.60312V16.425Z"/>
</svg>
